<svg width="156" height="35" viewBox="0 0 156 35" fill="none" xmlns="http://www.w3.org/2000/svg">
<path d="M0 8.5C0 4.08172 3.58172 0.5 8 0.5H148C152.418 0.5 156 4.08172 156 8.5V26.5C156 30.9183 152.418 34.5 148 34.5H8C3.58172 34.5 0 30.9183 0 26.5V8.5Z" fill="#DFEDF0"/>
<path d="M23.0273 20.3271C23.0273 21.1976 22.7129 21.8835 22.084 22.3848C21.4551 22.8861 20.5801 23.1367 19.459 23.1367C18.2741 23.1367 17.3581 22.9795 16.7109 22.665V21.4619C17.1348 21.6442 17.5973 21.7878 18.0986 21.8926C18.6045 21.9974 19.0762 22.0498 19.5137 22.0498C20.2611 22.0498 20.8239 21.9062 21.2021 21.6191C21.5804 21.332 21.7695 20.9378 21.7695 20.4365C21.7695 20.1038 21.7012 19.8304 21.5645 19.6162C21.4277 19.402 21.1976 19.2015 20.874 19.0146C20.555 18.8278 20.0697 18.6159 19.418 18.3789C18.4928 18.0417 17.832 17.6452 17.4355 17.1895C17.0391 16.7292 16.8408 16.1367 16.8408 15.4121C16.8408 14.6328 17.1325 14.013 17.7158 13.5527C18.3037 13.0924 19.0762 12.8623 20.0332 12.8623C21.0312 12.8623 21.9495 13.0492 22.7881 13.4229L22.3984 14.5029C21.5417 14.1475 20.7441 13.9697 20.0059 13.9697C19.4134 13.9697 18.9486 14.0973 18.6113 14.3525C18.2786 14.6077 18.1123 14.9655 18.1123 15.4258C18.1123 15.7539 18.1761 16.0273 18.3037 16.2461C18.4359 16.4603 18.6455 16.6562 18.9326 16.834C19.2243 17.0117 19.68 17.2145 20.2998 17.4424C21.0426 17.7158 21.5964 17.9824 21.9609 18.2422C22.3255 18.4974 22.5944 18.7936 22.7676 19.1309C22.9408 19.4635 23.0273 19.8623 23.0273 20.3271ZM31.3945 19.2334C31.3945 20.4593 31.0846 21.4163 30.4648 22.1045C29.8451 22.7926 28.9883 23.1367 27.8945 23.1367C27.2155 23.1367 26.6139 22.9795 26.0898 22.665C25.5658 22.346 25.1624 21.8903 24.8799 21.2979C24.5973 20.7054 24.4561 20.0173 24.4561 19.2334C24.4561 18.012 24.7614 17.0618 25.3721 16.3828C25.9827 15.6992 26.8395 15.3574 27.9424 15.3574C28.9997 15.3574 29.8382 15.7061 30.458 16.4033C31.0824 17.096 31.3945 18.0394 31.3945 19.2334ZM25.7275 19.2334C25.7275 20.1768 25.9121 20.8945 26.2812 21.3867C26.6549 21.8743 27.2041 22.1182 27.9287 22.1182C28.6442 22.1182 29.1888 21.8743 29.5625 21.3867C29.9362 20.8945 30.123 20.1768 30.123 19.2334C30.123 18.29 29.9339 17.5814 29.5557 17.1074C29.182 16.6289 28.6328 16.3896 27.9082 16.3896C26.4544 16.3896 25.7275 17.3376 25.7275 19.2334ZM38.4629 23V18.2012C38.4629 17.5905 38.3262 17.137 38.0527 16.8408C37.7839 16.54 37.36 16.3896 36.7812 16.3896C36.0111 16.3896 35.4505 16.6038 35.0996 17.0322C34.7533 17.4561 34.5801 18.1488 34.5801 19.1104V23H33.3496V15.4941H34.3408L34.5254 16.5195H34.5938C34.8262 16.1504 35.152 15.8656 35.5713 15.665C35.9906 15.46 36.4531 15.3574 36.959 15.3574C37.8796 15.3574 38.5632 15.5807 39.0098 16.0273C39.4564 16.474 39.6797 17.1689 39.6797 18.1123V23H38.4629ZM44.6631 23.1367C43.6878 23.1367 42.9313 22.7995 42.3936 22.125C41.8558 21.4505 41.5869 20.4958 41.5869 19.2607C41.5869 18.0348 41.8558 17.0778 42.3936 16.3896C42.9359 15.7015 43.6969 15.3574 44.6768 15.3574C45.6839 15.3574 46.4587 15.7266 47.001 16.4648H47.0898C47.0762 16.3737 47.0579 16.1914 47.0352 15.918C47.0124 15.64 47.001 15.4531 47.001 15.3574V12.3633H48.2314V23H47.2402L47.0557 21.9951H47.001C46.4769 22.7562 45.6976 23.1367 44.6631 23.1367ZM44.8613 22.1182C45.6087 22.1182 46.1533 21.9154 46.4951 21.5098C46.8415 21.0996 47.0146 20.4297 47.0146 19.5V19.2744C47.0146 18.2308 46.8392 17.488 46.4883 17.0459C46.1419 16.5993 45.5951 16.376 44.8477 16.376C44.2142 16.376 43.7243 16.6289 43.3779 17.1348C43.0316 17.6361 42.8584 18.3538 42.8584 19.2881C42.8584 20.2178 43.0293 20.9219 43.3711 21.4004C43.7174 21.8789 44.2142 22.1182 44.8613 22.1182ZM55.252 23L55.0127 21.9336H54.958C54.5843 22.403 54.2106 22.722 53.8369 22.8906C53.4678 23.0547 53.0007 23.1367 52.4355 23.1367C51.6973 23.1367 51.1185 22.943 50.6992 22.5557C50.2799 22.1683 50.0703 21.6214 50.0703 20.915C50.0703 19.3929 51.2712 18.5954 53.6729 18.5225L54.9443 18.4746V18.0303C54.9443 17.4606 54.8213 17.0413 54.5752 16.7725C54.3291 16.499 53.9349 16.3623 53.3926 16.3623C52.9961 16.3623 52.6201 16.4215 52.2646 16.54C51.9137 16.6585 51.5833 16.7907 51.2734 16.9365L50.8975 16.0137C51.2757 15.8132 51.6882 15.6559 52.1348 15.542C52.5814 15.4281 53.0234 15.3711 53.4609 15.3711C54.3678 15.3711 55.0423 15.5716 55.4844 15.9727C55.9264 16.3737 56.1475 17.0117 56.1475 17.8867V23H55.252ZM52.7158 22.1455C53.404 22.1455 53.944 21.9609 54.3359 21.5918C54.7324 21.2181 54.9307 20.6895 54.9307 20.0059V19.3291L53.8232 19.377C52.9619 19.4089 52.333 19.5456 51.9365 19.7871C51.5446 20.0286 51.3486 20.4092 51.3486 20.9287C51.3486 21.3206 51.4671 21.6214 51.7041 21.8311C51.9456 22.0407 52.2829 22.1455 52.7158 22.1455ZM63.3662 20.9287C63.3662 21.6305 63.1042 22.1751 62.5801 22.5625C62.056 22.9453 61.32 23.1367 60.3721 23.1367C59.3831 23.1367 58.597 22.9795 58.0137 22.665V21.5439C58.8385 21.945 59.6338 22.1455 60.3994 22.1455C61.0192 22.1455 61.4704 22.0452 61.7529 21.8447C62.0355 21.6442 62.1768 21.3753 62.1768 21.0381C62.1768 20.7419 62.04 20.4912 61.7666 20.2861C61.4977 20.0811 61.0169 19.8464 60.3242 19.582C59.6178 19.3086 59.1211 19.0762 58.834 18.8848C58.5469 18.6888 58.335 18.4701 58.1982 18.2285C58.0661 17.987 58 17.693 58 17.3467C58 16.7314 58.2507 16.2461 58.752 15.8906C59.2533 15.5352 59.9414 15.3574 60.8164 15.3574C61.6686 15.3574 62.4661 15.526 63.209 15.8633L62.792 16.8408C62.0309 16.5218 61.3451 16.3623 60.7344 16.3623C60.224 16.3623 59.8366 16.4443 59.5723 16.6084C59.3079 16.7679 59.1758 16.9889 59.1758 17.2715C59.1758 17.5449 59.2897 17.7728 59.5176 17.9551C59.7454 18.1328 60.2764 18.3812 61.1104 18.7002C61.7347 18.9326 62.195 19.1491 62.4912 19.3496C62.792 19.5501 63.013 19.7757 63.1543 20.0264C63.2956 20.277 63.3662 20.5778 63.3662 20.9287Z" fill="#1A343D"/>
<path d="M142.443 14.7213L139 18.1563L135.557 14.7213L134.5 15.7788L139 20.2788L143.5 15.7788L142.443 14.7213Z" fill="#1A343D"/>
</svg>
