<svg width="24" height="24" viewBox="0 0 24 24" fill="none" xmlns="http://www.w3.org/2000/svg">
<path d="M5.19455 15.8642L10.9844 19.2131V12.5621L5.19455 9.21311V15.8642ZM13.0156 19.2131L18.7821 15.8642V9.1897L13.0156 12.5621V19.2131ZM6.29183 7.50351L11.9883 10.829L17.6848 7.50351L11.9883 4.20141L6.29183 7.50351ZM3 17.1522V8.13583C3 7.74551 3.09339 7.37861 3.28016 7.03513C3.46693 6.69165 3.7393 6.41842 4.09728 6.21546L10.8911 2.28103C11.2335 2.09368 11.5992 2 11.9883 2C12.3774 2 12.7432 2.09368 13.0856 2.28103L19.8794 6.21546C20.2374 6.41842 20.5136 6.69165 20.7082 7.03513C20.9027 7.37861 21 7.74551 21 8.13583V15.8642C21 16.2545 20.9027 16.6214 20.7082 16.9649C20.5136 17.3084 20.2374 17.5816 19.8794 17.7845L13.0856 21.6955C12.7432 21.8985 12.3774 22 11.9883 22C11.5992 22 11.2335 21.8985 10.8911 21.6955L3 17.1522Z" fill="#4E7F7C"/>
</svg>
