<svg width="140" height="26" viewBox="0 0 140 26" fill="none" xmlns="http://www.w3.org/2000/svg">
<path d="M0 8C0 3.58172 3.58172 0 8 0H132C136.418 0 140 3.58172 140 8V18C140 22.4183 136.418 26 132 26H8C3.58172 26 0 22.4183 0 18V8Z" fill="#E6F5FA"/>
<path d="M28.2983 14.8905L25.0003 18.2067L19.8215 12.9998L25.0003 7.79367L28.2983 11.1095L29.4157 9.98548L24.9999 5.54614L17.5864 12.9998L25.0003 20.4539L29.4159 16.014L28.2983 14.8905Z" fill="#007AAA"/>
<path d="M32.4136 12.9998L30.244 10.8185L29.126 11.942L30.1786 12.9998L29.1262 14.0579L30.2436 15.1816L32.4136 12.9998Z" fill="#007AAA"/>
<path d="M29.126 12.9998L26.9566 10.8185L25.8384 11.942L26.891 12.9998L25.8388 14.0579L26.9562 15.1816L29.126 12.9998Z" fill="#007AAA"/>
<path d="M25.8384 12.9998L23.6688 10.8185L22.5508 11.942L23.6036 12.9998L22.551 14.0579L23.6686 15.1816L25.8384 12.9998Z" fill="#007AAA"/>
<path d="M43.642 9.47C43.11 9.47 42.6293 9.56333 42.2 9.75C41.7707 9.92733 41.4067 10.1933 41.108 10.548C40.8093 10.8933 40.5807 11.318 40.422 11.822C40.2633 12.3167 40.184 12.8767 40.184 13.502C40.184 14.3233 40.31 15.0373 40.562 15.644C40.8233 16.2507 41.206 16.7173 41.71 17.044C42.2233 17.3707 42.8627 17.534 43.628 17.534C44.0667 17.534 44.482 17.4967 44.874 17.422C45.266 17.3473 45.6487 17.254 46.022 17.142V18.234C45.6487 18.374 45.2613 18.4767 44.86 18.542C44.468 18.6073 43.9967 18.64 43.446 18.64C42.4287 18.64 41.5793 18.43 40.898 18.01C40.2167 17.59 39.7033 16.9927 39.358 16.218C39.022 15.4433 38.854 14.5333 38.854 13.488C38.854 12.732 38.9567 12.0413 39.162 11.416C39.3767 10.7907 39.6847 10.2493 40.086 9.792C40.4967 9.33467 41.0007 8.98467 41.598 8.742C42.1953 8.49 42.8813 8.364 43.656 8.364C44.1693 8.364 44.664 8.41533 45.14 8.518C45.616 8.62067 46.0407 8.76533 46.414 8.952L45.91 10.016C45.602 9.876 45.2567 9.75 44.874 9.638C44.5007 9.526 44.09 9.47 43.642 9.47ZM59.6837 8.504L57.0237 18.5H55.7497L53.8037 11.948C53.7477 11.752 53.6917 11.5513 53.6357 11.346C53.5797 11.1407 53.5284 10.9447 53.4817 10.758C53.435 10.5713 53.393 10.4127 53.3557 10.282C53.3277 10.142 53.309 10.0393 53.2997 9.974C53.2904 10.0393 53.2717 10.142 53.2437 10.282C53.225 10.4127 53.1924 10.5713 53.1457 10.758C53.099 10.9447 53.0477 11.1453 52.9917 11.36C52.945 11.5653 52.889 11.7753 52.8237 11.99L50.9337 18.5H49.6597L47.0137 8.504H48.3297L49.8837 14.608C49.9397 14.8227 49.991 15.0373 50.0377 15.252C50.0844 15.4573 50.1264 15.6627 50.1637 15.868C50.2104 16.064 50.2477 16.2553 50.2757 16.442C50.3037 16.6287 50.3317 16.8107 50.3597 16.988C50.3877 16.8013 50.4157 16.61 50.4437 16.414C50.481 16.218 50.523 16.0173 50.5697 15.812C50.6164 15.5973 50.6677 15.3827 50.7237 15.168C50.7797 14.9533 50.8357 14.7433 50.8917 14.538L52.6557 8.504H53.9577L55.7917 14.58C55.857 14.7947 55.9177 15.014 55.9737 15.238C56.0297 15.4527 56.081 15.6627 56.1277 15.868C56.1744 16.0733 56.2117 16.274 56.2397 16.47C56.277 16.6567 56.3097 16.8293 56.3377 16.988C56.3657 16.7547 56.403 16.512 56.4497 16.26C56.4964 15.9987 56.5524 15.728 56.6177 15.448C56.683 15.168 56.753 14.8833 56.8277 14.594L58.3677 8.504H59.6837ZM67.614 8.504C68.4447 8.504 69.126 8.61133 69.658 8.826C70.1994 9.03133 70.6007 9.344 70.862 9.764C71.1234 10.184 71.254 10.7113 71.254 11.346C71.254 11.878 71.156 12.3213 70.96 12.676C70.764 13.0307 70.512 13.3153 70.204 13.53C69.9054 13.7353 69.588 13.8987 69.252 14.02L71.996 18.5H70.526L68.104 14.37H66.116V18.5H64.856V8.504H67.614ZM67.544 9.596H66.116V13.306H67.614C68.1554 13.306 68.5987 13.236 68.944 13.096C69.2894 12.9467 69.5414 12.732 69.7 12.452C69.868 12.172 69.952 11.822 69.952 11.402C69.952 10.9633 69.8634 10.6133 69.686 10.352C69.518 10.0907 69.2567 9.89933 68.902 9.778C68.5474 9.65667 68.0947 9.596 67.544 9.596ZM76.295 10.856C76.939 10.856 77.4897 10.996 77.947 11.276C78.4137 11.556 78.7684 11.9527 79.011 12.466C79.263 12.97 79.389 13.5627 79.389 14.244V14.986H74.251C74.2697 15.8353 74.4844 16.484 74.895 16.932C75.315 17.3707 75.8984 17.59 76.645 17.59C77.121 17.59 77.541 17.548 77.905 17.464C78.2784 17.3707 78.661 17.24 79.053 17.072V18.15C78.6704 18.318 78.2924 18.4393 77.919 18.514C77.5457 18.598 77.1024 18.64 76.589 18.64C75.8797 18.64 75.2497 18.4953 74.699 18.206C74.1577 17.9167 73.733 17.4873 73.425 16.918C73.1264 16.3393 72.977 15.6347 72.977 14.804C72.977 13.9827 73.1124 13.278 73.383 12.69C73.663 12.102 74.0504 11.6493 74.545 11.332C75.049 11.0147 75.6324 10.856 76.295 10.856ZM76.281 11.864C75.693 11.864 75.2264 12.0553 74.881 12.438C74.545 12.8113 74.3444 13.334 74.279 14.006H78.101C78.101 13.5767 78.0357 13.2033 77.905 12.886C77.7744 12.5687 77.5737 12.3213 77.303 12.144C77.0417 11.9573 76.701 11.864 76.281 11.864ZM84.3094 18.64C83.6467 18.64 83.054 18.5047 82.5314 18.234C82.018 17.9633 81.612 17.5433 81.3134 16.974C81.024 16.4047 80.8794 15.6767 80.8794 14.79C80.8794 13.866 81.0334 13.1147 81.3414 12.536C81.6494 11.9573 82.0647 11.5327 82.5874 11.262C83.1194 10.9913 83.7214 10.856 84.3934 10.856C84.776 10.856 85.1447 10.898 85.4994 10.982C85.854 11.0567 86.1434 11.15 86.3674 11.262L85.9894 12.284C85.7654 12.2 85.504 12.1207 85.2054 12.046C84.9067 11.9713 84.6267 11.934 84.3654 11.934C83.8614 11.934 83.446 12.0413 83.1194 12.256C82.7927 12.4707 82.55 12.788 82.3914 13.208C82.2327 13.628 82.1534 14.1507 82.1534 14.776C82.1534 15.3733 82.2327 15.882 82.3914 16.302C82.55 16.722 82.788 17.0393 83.1054 17.254C83.4227 17.4687 83.8194 17.576 84.2954 17.576C84.706 17.576 85.0654 17.534 85.3734 17.45C85.6907 17.366 85.98 17.2633 86.2414 17.142V18.234C85.9894 18.3647 85.7094 18.4627 85.4014 18.528C85.1027 18.6027 84.7387 18.64 84.3094 18.64ZM94.2979 10.996V18.5H93.2899L93.1079 17.506H93.0519C92.8933 17.7673 92.6879 17.982 92.4359 18.15C92.1839 18.318 91.9086 18.4393 91.6099 18.514C91.3113 18.598 90.9986 18.64 90.6719 18.64C90.0746 18.64 89.5706 18.5467 89.1599 18.36C88.7586 18.164 88.4553 17.8653 88.2499 17.464C88.0446 17.0627 87.9419 16.5447 87.9419 15.91V10.996H89.1879V15.826C89.1879 16.4233 89.3233 16.8713 89.5939 17.17C89.8646 17.4687 90.2846 17.618 90.8539 17.618C91.4139 17.618 91.8526 17.5153 92.1699 17.31C92.4966 17.0953 92.7253 16.7873 92.8559 16.386C92.9959 15.9753 93.0659 15.4807 93.0659 14.902V10.996H94.2979ZM100.18 10.856C100.32 10.856 100.47 10.8653 100.628 10.884C100.796 10.8933 100.941 10.912 101.062 10.94L100.908 12.074C100.787 12.046 100.652 12.0227 100.502 12.004C100.362 11.9853 100.227 11.976 100.096 11.976C99.8069 11.976 99.5316 12.0367 99.2702 12.158C99.0089 12.2793 98.7756 12.452 98.5702 12.676C98.3649 12.8907 98.2016 13.152 98.0802 13.46C97.9682 13.768 97.9122 14.1133 97.9122 14.496V18.5H96.6802V10.996H97.6882L97.8282 12.368H97.8842C98.0429 12.088 98.2342 11.836 98.4582 11.612C98.6822 11.3787 98.9389 11.1967 99.2282 11.066C99.5176 10.926 99.8349 10.856 100.18 10.856ZM107.349 16.428C107.349 16.9133 107.228 17.3193 106.985 17.646C106.743 17.9727 106.397 18.22 105.949 18.388C105.501 18.556 104.969 18.64 104.353 18.64C103.831 18.64 103.378 18.598 102.995 18.514C102.622 18.43 102.291 18.3133 102.001 18.164V17.044C102.3 17.1933 102.659 17.3333 103.079 17.464C103.509 17.5853 103.943 17.646 104.381 17.646C105.007 17.646 105.459 17.548 105.739 17.352C106.019 17.1467 106.159 16.876 106.159 16.54C106.159 16.3533 106.108 16.1853 106.005 16.036C105.903 15.8867 105.716 15.7373 105.445 15.588C105.184 15.4387 104.806 15.2707 104.311 15.084C103.826 14.8973 103.411 14.7107 103.065 14.524C102.72 14.3373 102.454 14.1133 102.267 13.852C102.081 13.5907 101.987 13.2547 101.987 12.844C101.987 12.2093 102.244 11.7193 102.757 11.374C103.28 11.0287 103.961 10.856 104.801 10.856C105.259 10.856 105.683 10.9027 106.075 10.996C106.477 11.08 106.85 11.2013 107.195 11.36L106.775 12.34C106.57 12.2467 106.351 12.1673 106.117 12.102C105.893 12.0273 105.665 11.9713 105.431 11.934C105.198 11.8873 104.96 11.864 104.717 11.864C104.213 11.864 103.826 11.948 103.555 12.116C103.294 12.2747 103.163 12.494 103.163 12.774C103.163 12.9793 103.224 13.1567 103.345 13.306C103.467 13.446 103.667 13.586 103.947 13.726C104.237 13.8567 104.619 14.0153 105.095 14.202C105.571 14.3793 105.977 14.5613 106.313 14.748C106.649 14.9347 106.906 15.1633 107.083 15.434C107.261 15.6953 107.349 16.0267 107.349 16.428ZM115.687 14.734C115.687 15.3593 115.603 15.9147 115.435 16.4C115.276 16.876 115.043 17.282 114.735 17.618C114.436 17.954 114.067 18.2107 113.629 18.388C113.199 18.556 112.719 18.64 112.187 18.64C111.692 18.64 111.235 18.556 110.815 18.388C110.395 18.2107 110.031 17.954 109.723 17.618C109.415 17.282 109.172 16.876 108.995 16.4C108.827 15.9147 108.743 15.3593 108.743 14.734C108.743 13.9033 108.883 13.2033 109.163 12.634C109.443 12.0553 109.844 11.6167 110.367 11.318C110.889 11.01 111.51 10.856 112.229 10.856C112.91 10.856 113.507 11.01 114.021 11.318C114.543 11.6167 114.949 12.0553 115.239 12.634C115.537 13.2033 115.687 13.9033 115.687 14.734ZM110.017 14.734C110.017 15.322 110.091 15.8353 110.241 16.274C110.399 16.7033 110.642 17.0347 110.969 17.268C111.295 17.5013 111.711 17.618 112.215 17.618C112.719 17.618 113.134 17.5013 113.461 17.268C113.787 17.0347 114.025 16.7033 114.175 16.274C114.333 15.8353 114.413 15.322 114.413 14.734C114.413 14.1367 114.333 13.628 114.175 13.208C114.016 12.788 113.773 12.466 113.447 12.242C113.129 12.0087 112.714 11.892 112.201 11.892C111.435 11.892 110.88 12.144 110.535 12.648C110.189 13.152 110.017 13.8473 110.017 14.734ZM122.525 16.428C122.525 16.9133 122.404 17.3193 122.161 17.646C121.919 17.9727 121.573 18.22 121.125 18.388C120.677 18.556 120.145 18.64 119.529 18.64C119.007 18.64 118.554 18.598 118.171 18.514C117.798 18.43 117.467 18.3133 117.177 18.164V17.044C117.476 17.1933 117.835 17.3333 118.255 17.464C118.685 17.5853 119.119 17.646 119.557 17.646C120.183 17.646 120.635 17.548 120.915 17.352C121.195 17.1467 121.335 16.876 121.335 16.54C121.335 16.3533 121.284 16.1853 121.181 16.036C121.079 15.8867 120.892 15.7373 120.621 15.588C120.36 15.4387 119.982 15.2707 119.487 15.084C119.002 14.8973 118.587 14.7107 118.241 14.524C117.896 14.3373 117.63 14.1133 117.443 13.852C117.257 13.5907 117.163 13.2547 117.163 12.844C117.163 12.2093 117.42 11.7193 117.933 11.374C118.456 11.0287 119.137 10.856 119.977 10.856C120.435 10.856 120.859 10.9027 121.251 10.996C121.653 11.08 122.026 11.2013 122.371 11.36L121.951 12.34C121.746 12.2467 121.527 12.1673 121.293 12.102C121.069 12.0273 120.841 11.9713 120.607 11.934C120.374 11.8873 120.136 11.864 119.893 11.864C119.389 11.864 119.002 11.948 118.731 12.116C118.47 12.2747 118.339 12.494 118.339 12.774C118.339 12.9793 118.4 13.1567 118.521 13.306C118.643 13.446 118.843 13.586 119.123 13.726C119.413 13.8567 119.795 14.0153 120.271 14.202C120.747 14.3793 121.153 14.5613 121.489 14.748C121.825 14.9347 122.082 15.1633 122.259 15.434C122.437 15.6953 122.525 16.0267 122.525 16.428Z" fill="#007AAA"/>
</svg>
