<svg width="186" height="32" viewBox="0 0 186 32" fill="none" xmlns="http://www.w3.org/2000/svg">
<path d="M0.5 8C0.5 3.85786 3.85786 0.5 8 0.5H178C182.142 0.5 185.5 3.85786 185.5 8V24C185.5 28.1421 182.142 31.5 178 31.5H8C3.85787 31.5 0.5 28.1421 0.5 24V8Z" stroke="#62A09E"/>
<path d="M31.172 21H27.56V20.272L28.736 20.006V12.012L27.56 11.732V11.004H31.172V11.732L29.996 12.012V20.006L31.172 20.272V21ZM36.5461 13.356C37.4421 13.356 38.1188 13.5753 38.5761 14.014C39.0335 14.4433 39.2621 15.1433 39.2621 16.114V21H38.0441V16.198C38.0441 15.5913 37.9088 15.1387 37.6381 14.84C37.3675 14.5413 36.9428 14.392 36.3641 14.392C35.5335 14.392 34.9595 14.6253 34.6421 15.092C34.3248 15.5587 34.1661 16.2307 34.1661 17.108V21H32.9341V13.496H33.9281L34.1101 14.518H34.1801C34.3481 14.2567 34.5535 14.042 34.7961 13.874C35.0481 13.6967 35.3235 13.566 35.6221 13.482C35.9208 13.398 36.2288 13.356 36.5461 13.356ZM44.5984 21.14C43.9358 21.14 43.3431 21.0047 42.8204 20.734C42.3071 20.4633 41.9011 20.0433 41.6024 19.474C41.3131 18.9047 41.1684 18.1767 41.1684 17.29C41.1684 16.366 41.3224 15.6147 41.6304 15.036C41.9384 14.4573 42.3538 14.0327 42.8764 13.762C43.4084 13.4913 44.0104 13.356 44.6824 13.356C45.0651 13.356 45.4338 13.398 45.7884 13.482C46.1431 13.5567 46.4324 13.65 46.6564 13.762L46.2784 14.784C46.0544 14.7 45.7931 14.6207 45.4944 14.546C45.1958 14.4713 44.9158 14.434 44.6544 14.434C44.1504 14.434 43.7351 14.5413 43.4084 14.756C43.0818 14.9707 42.8391 15.288 42.6804 15.708C42.5218 16.128 42.4424 16.6507 42.4424 17.276C42.4424 17.8733 42.5218 18.382 42.6804 18.802C42.8391 19.222 43.0771 19.5393 43.3944 19.754C43.7118 19.9687 44.1084 20.076 44.5844 20.076C44.9951 20.076 45.3544 20.034 45.6624 19.95C45.9798 19.866 46.2691 19.7633 46.5304 19.642V20.734C46.2784 20.8647 45.9984 20.9627 45.6904 21.028C45.3918 21.1027 45.0278 21.14 44.5984 21.14ZM49.547 21H48.315V10.36H49.547V21ZM58.1964 13.496V21H57.1884L57.0064 20.006H56.9504C56.7917 20.2673 56.5864 20.482 56.3344 20.65C56.0824 20.818 55.807 20.9393 55.5084 21.014C55.2097 21.098 54.897 21.14 54.5704 21.14C53.973 21.14 53.469 21.0467 53.0584 20.86C52.657 20.664 52.3537 20.3653 52.1484 19.964C51.943 19.5627 51.8404 19.0447 51.8404 18.41V13.496H53.0864V18.326C53.0864 18.9233 53.2217 19.3713 53.4924 19.67C53.763 19.9687 54.183 20.118 54.7524 20.118C55.3124 20.118 55.751 20.0153 56.0684 19.81C56.395 19.5953 56.6237 19.2873 56.7544 18.886C56.8944 18.4753 56.9644 17.9807 56.9644 17.402V13.496H58.1964ZM61.8107 13.496V21H60.5787V13.496H61.8107ZM61.2087 10.682C61.3953 10.682 61.5587 10.7473 61.6987 10.878C61.848 10.9993 61.9227 11.1953 61.9227 11.466C61.9227 11.7273 61.848 11.9233 61.6987 12.054C61.5587 12.1847 61.3953 12.25 61.2087 12.25C61.0033 12.25 60.8307 12.1847 60.6907 12.054C60.5507 11.9233 60.4807 11.7273 60.4807 11.466C60.4807 11.1953 60.5507 10.9993 60.6907 10.878C60.8307 10.7473 61.0033 10.682 61.2087 10.682ZM67.688 13.356C67.828 13.356 67.9774 13.3653 68.136 13.384C68.304 13.3933 68.4487 13.412 68.57 13.44L68.416 14.574C68.2947 14.546 68.1594 14.5227 68.01 14.504C67.87 14.4853 67.7347 14.476 67.604 14.476C67.3147 14.476 67.0394 14.5367 66.778 14.658C66.5167 14.7793 66.2834 14.952 66.078 15.176C65.8727 15.3907 65.7094 15.652 65.588 15.96C65.476 16.268 65.42 16.6133 65.42 16.996V21H64.188V13.496H65.196L65.336 14.868H65.392C65.5507 14.588 65.742 14.336 65.966 14.112C66.19 13.8787 66.4467 13.6967 66.736 13.566C67.0254 13.426 67.3427 13.356 67.688 13.356ZM76.618 21.14C75.9553 21.14 75.3626 21.0047 74.84 20.734C74.3266 20.4633 73.9206 20.0433 73.622 19.474C73.3326 18.9047 73.188 18.1767 73.188 17.29C73.188 16.366 73.342 15.6147 73.65 15.036C73.958 14.4573 74.3733 14.0327 74.896 13.762C75.428 13.4913 76.03 13.356 76.702 13.356C77.0846 13.356 77.4533 13.398 77.808 13.482C78.1626 13.5567 78.452 13.65 78.676 13.762L78.298 14.784C78.074 14.7 77.8126 14.6207 77.514 14.546C77.2153 14.4713 76.9353 14.434 76.674 14.434C76.17 14.434 75.7546 14.5413 75.428 14.756C75.1013 14.9707 74.8586 15.288 74.7 15.708C74.5413 16.128 74.462 16.6507 74.462 17.276C74.462 17.8733 74.5413 18.382 74.7 18.802C74.8586 19.222 75.0966 19.5393 75.414 19.754C75.7313 19.9687 76.128 20.076 76.604 20.076C77.0146 20.076 77.374 20.034 77.682 19.95C77.9993 19.866 78.2886 19.7633 78.55 19.642V20.734C78.298 20.8647 78.018 20.9627 77.71 21.028C77.4113 21.1027 77.0473 21.14 76.618 21.14ZM86.8585 17.234C86.8585 17.8593 86.7745 18.4147 86.6065 18.9C86.4479 19.376 86.2145 19.782 85.9065 20.118C85.6079 20.454 85.2392 20.7107 84.8005 20.888C84.3712 21.056 83.8905 21.14 83.3585 21.14C82.8639 21.14 82.4065 21.056 81.9865 20.888C81.5665 20.7107 81.2025 20.454 80.8945 20.118C80.5865 19.782 80.3439 19.376 80.1665 18.9C79.9985 18.4147 79.9145 17.8593 79.9145 17.234C79.9145 16.4033 80.0545 15.7033 80.3345 15.134C80.6145 14.5553 81.0159 14.1167 81.5385 13.818C82.0612 13.51 82.6819 13.356 83.4005 13.356C84.0819 13.356 84.6792 13.51 85.1925 13.818C85.7152 14.1167 86.1212 14.5553 86.4105 15.134C86.7092 15.7033 86.8585 16.4033 86.8585 17.234ZM81.1885 17.234C81.1885 17.822 81.2632 18.3353 81.4125 18.774C81.5712 19.2033 81.8139 19.5347 82.1405 19.768C82.4672 20.0013 82.8825 20.118 83.3865 20.118C83.8905 20.118 84.3059 20.0013 84.6325 19.768C84.9592 19.5347 85.1972 19.2033 85.3465 18.774C85.5052 18.3353 85.5845 17.822 85.5845 17.234C85.5845 16.6367 85.5052 16.128 85.3465 15.708C85.1879 15.288 84.9452 14.966 84.6185 14.742C84.3012 14.5087 83.8859 14.392 83.3725 14.392C82.6072 14.392 82.0519 14.644 81.7065 15.148C81.3612 15.652 81.1885 16.3473 81.1885 17.234ZM92.4231 13.356C93.3191 13.356 93.9958 13.5753 94.4531 14.014C94.9104 14.4433 95.1391 15.1433 95.1391 16.114V21H93.9211V16.198C93.9211 15.5913 93.7858 15.1387 93.5151 14.84C93.2444 14.5413 92.8198 14.392 92.2411 14.392C91.4104 14.392 90.8364 14.6253 90.5191 15.092C90.2018 15.5587 90.0431 16.2307 90.0431 17.108V21H88.8111V13.496H89.8051L89.9871 14.518H90.0571C90.2251 14.2567 90.4304 14.042 90.6731 13.874C90.9251 13.6967 91.2004 13.566 91.4991 13.482C91.7978 13.398 92.1058 13.356 92.4231 13.356ZM99.9714 20.132C100.158 20.132 100.349 20.118 100.545 20.09C100.741 20.0527 100.9 20.0153 101.021 19.978V20.916C100.891 20.9813 100.704 21.0327 100.461 21.07C100.219 21.1167 99.9854 21.14 99.7614 21.14C99.3694 21.14 99.0054 21.0747 98.6694 20.944C98.3427 20.804 98.0767 20.566 97.8714 20.23C97.6661 19.894 97.5634 19.4227 97.5634 18.816V14.448H96.4994V13.86L97.5774 13.37L98.0674 11.774H98.7954V13.496H100.965V14.448H98.7954V18.788C98.7954 19.2453 98.9027 19.586 99.1174 19.81C99.3414 20.0247 99.6261 20.132 99.9714 20.132ZM103.756 13.496V21H102.524V13.496H103.756ZM103.154 10.682C103.341 10.682 103.504 10.7473 103.644 10.878C103.793 10.9993 103.868 11.1953 103.868 11.466C103.868 11.7273 103.793 11.9233 103.644 12.054C103.504 12.1847 103.341 12.25 103.154 12.25C102.949 12.25 102.776 12.1847 102.636 12.054C102.496 11.9233 102.426 11.7273 102.426 11.466C102.426 11.1953 102.496 10.9993 102.636 10.878C102.776 10.7473 102.949 10.682 103.154 10.682ZM109.745 13.356C110.641 13.356 111.318 13.5753 111.775 14.014C112.233 14.4433 112.461 15.1433 112.461 16.114V21H111.243V16.198C111.243 15.5913 111.108 15.1387 110.837 14.84C110.567 14.5413 110.142 14.392 109.563 14.392C108.733 14.392 108.159 14.6253 107.841 15.092C107.524 15.5587 107.365 16.2307 107.365 17.108V21H106.133V13.496H107.127L107.309 14.518H107.379C107.547 14.2567 107.753 14.042 107.995 13.874C108.247 13.6967 108.523 13.566 108.821 13.482C109.12 13.398 109.428 13.356 109.745 13.356ZM117.448 13.356C117.942 13.356 118.386 13.4493 118.778 13.636C119.179 13.8227 119.52 14.1073 119.8 14.49H119.87L120.038 13.496H121.018V21.126C121.018 21.8353 120.896 22.428 120.654 22.904C120.411 23.3893 120.042 23.7533 119.548 23.996C119.053 24.2387 118.423 24.36 117.658 24.36C117.116 24.36 116.617 24.318 116.16 24.234C115.712 24.1593 115.31 24.0427 114.956 23.884V22.75C115.198 22.8713 115.464 22.974 115.754 23.058C116.043 23.1513 116.356 23.2213 116.692 23.268C117.028 23.3147 117.373 23.338 117.728 23.338C118.372 23.338 118.876 23.1467 119.24 22.764C119.613 22.3907 119.8 21.8773 119.8 21.224V20.93C119.8 20.818 119.804 20.6593 119.814 20.454C119.823 20.2393 119.832 20.09 119.842 20.006H119.786C119.524 20.3887 119.198 20.6733 118.806 20.86C118.423 21.0467 117.975 21.14 117.462 21.14C116.491 21.14 115.73 20.7993 115.18 20.118C114.638 19.4367 114.368 18.4847 114.368 17.262C114.368 16.4593 114.489 15.7687 114.732 15.19C114.984 14.602 115.338 14.1493 115.796 13.832C116.253 13.5147 116.804 13.356 117.448 13.356ZM117.616 14.392C117.196 14.392 116.836 14.504 116.538 14.728C116.248 14.952 116.024 15.2787 115.866 15.708C115.716 16.1373 115.642 16.66 115.642 17.276C115.642 18.2 115.81 18.9093 116.146 19.404C116.491 19.8893 116.99 20.132 117.644 20.132C118.026 20.132 118.353 20.0853 118.624 19.992C118.894 19.8893 119.118 19.7353 119.296 19.53C119.473 19.3153 119.604 19.0447 119.688 18.718C119.772 18.3913 119.814 18.004 119.814 17.556V17.262C119.814 16.5807 119.734 16.03 119.576 15.61C119.426 15.19 119.188 14.882 118.862 14.686C118.535 14.49 118.12 14.392 117.616 14.392ZM126.299 13.356C126.943 13.356 127.494 13.496 127.951 13.776C128.418 14.056 128.772 14.4527 129.015 14.966C129.267 15.47 129.393 16.0627 129.393 16.744V17.486H124.255C124.274 18.3353 124.488 18.984 124.899 19.432C125.319 19.8707 125.902 20.09 126.649 20.09C127.125 20.09 127.545 20.048 127.909 19.964C128.282 19.8707 128.665 19.74 129.057 19.572V20.65C128.674 20.818 128.296 20.9393 127.923 21.014C127.55 21.098 127.106 21.14 126.593 21.14C125.884 21.14 125.254 20.9953 124.703 20.706C124.162 20.4167 123.737 19.9873 123.429 19.418C123.13 18.8393 122.981 18.1347 122.981 17.304C122.981 16.4827 123.116 15.778 123.387 15.19C123.667 14.602 124.054 14.1493 124.549 13.832C125.053 13.5147 125.636 13.356 126.299 13.356ZM126.285 14.364C125.697 14.364 125.23 14.5553 124.885 14.938C124.549 15.3113 124.348 15.834 124.283 16.506H128.105C128.105 16.0767 128.04 15.7033 127.909 15.386C127.778 15.0687 127.578 14.8213 127.307 14.644C127.046 14.4573 126.705 14.364 126.285 14.364ZM134.915 13.356C135.811 13.356 136.488 13.5753 136.945 14.014C137.403 14.4433 137.631 15.1433 137.631 16.114V21H136.413V16.198C136.413 15.5913 136.278 15.1387 136.007 14.84C135.737 14.5413 135.312 14.392 134.733 14.392C133.903 14.392 133.329 14.6253 133.011 15.092C132.694 15.5587 132.535 16.2307 132.535 17.108V21H131.303V13.496H132.297L132.479 14.518H132.549C132.717 14.2567 132.923 14.042 133.165 13.874C133.417 13.6967 133.693 13.566 133.991 13.482C134.29 13.398 134.598 13.356 134.915 13.356ZM142.464 20.132C142.65 20.132 142.842 20.118 143.038 20.09C143.234 20.0527 143.392 20.0153 143.514 19.978V20.916C143.383 20.9813 143.196 21.0327 142.954 21.07C142.711 21.1167 142.478 21.14 142.254 21.14C141.862 21.14 141.498 21.0747 141.162 20.944C140.835 20.804 140.569 20.566 140.364 20.23C140.158 19.894 140.056 19.4227 140.056 18.816V14.448H138.992V13.86L140.07 13.37L140.56 11.774H141.288V13.496H143.458V14.448H141.288V18.788C141.288 19.2453 141.395 19.586 141.61 19.81C141.834 20.0247 142.118 20.132 142.464 20.132ZM147.914 13.356C148.558 13.356 149.109 13.496 149.566 13.776C150.033 14.056 150.388 14.4527 150.63 14.966C150.882 15.47 151.008 16.0627 151.008 16.744V17.486H145.87C145.889 18.3353 146.104 18.984 146.514 19.432C146.934 19.8707 147.518 20.09 148.264 20.09C148.74 20.09 149.16 20.048 149.524 19.964C149.898 19.8707 150.28 19.74 150.672 19.572V20.65C150.29 20.818 149.912 20.9393 149.538 21.014C149.165 21.098 148.722 21.14 148.208 21.14C147.499 21.14 146.869 20.9953 146.318 20.706C145.777 20.4167 145.352 19.9873 145.044 19.418C144.746 18.8393 144.596 18.1347 144.596 17.304C144.596 16.4827 144.732 15.778 145.002 15.19C145.282 14.602 145.67 14.1493 146.164 13.832C146.668 13.5147 147.252 13.356 147.914 13.356ZM147.9 14.364C147.312 14.364 146.846 14.5553 146.5 14.938C146.164 15.3113 145.964 15.834 145.898 16.506H149.72C149.72 16.0767 149.655 15.7033 149.524 15.386C149.394 15.0687 149.193 14.8213 148.922 14.644C148.661 14.4573 148.32 14.364 147.9 14.364ZM157.805 18.928C157.805 19.4133 157.683 19.8193 157.441 20.146C157.198 20.4727 156.853 20.72 156.405 20.888C155.957 21.056 155.425 21.14 154.809 21.14C154.286 21.14 153.833 21.098 153.451 21.014C153.077 20.93 152.746 20.8133 152.457 20.664V19.544C152.755 19.6933 153.115 19.8333 153.535 19.964C153.964 20.0853 154.398 20.146 154.837 20.146C155.462 20.146 155.915 20.048 156.195 19.852C156.475 19.6467 156.615 19.376 156.615 19.04C156.615 18.8533 156.563 18.6853 156.461 18.536C156.358 18.3867 156.171 18.2373 155.901 18.088C155.639 17.9387 155.261 17.7707 154.767 17.584C154.281 17.3973 153.866 17.2107 153.521 17.024C153.175 16.8373 152.909 16.6133 152.723 16.352C152.536 16.0907 152.443 15.7547 152.443 15.344C152.443 14.7093 152.699 14.2193 153.213 13.874C153.735 13.5287 154.417 13.356 155.257 13.356C155.714 13.356 156.139 13.4027 156.531 13.496C156.932 13.58 157.305 13.7013 157.651 13.86L157.231 14.84C157.025 14.7467 156.806 14.6673 156.573 14.602C156.349 14.5273 156.12 14.4713 155.887 14.434C155.653 14.3873 155.415 14.364 155.173 14.364C154.669 14.364 154.281 14.448 154.011 14.616C153.749 14.7747 153.619 14.994 153.619 15.274C153.619 15.4793 153.679 15.6567 153.801 15.806C153.922 15.946 154.123 16.086 154.403 16.226C154.692 16.3567 155.075 16.5153 155.551 16.702C156.027 16.8793 156.433 17.0613 156.769 17.248C157.105 17.4347 157.361 17.6633 157.539 17.934C157.716 18.1953 157.805 18.5267 157.805 18.928Z" fill="#62A09E"/>
</svg>
