<svg width="24" height="24" viewBox="0 0 24 24" fill="none" xmlns="http://www.w3.org/2000/svg">
<path d="M2.44777 19.8441C2.74629 20.1426 3.10514 20.2919 3.52433 20.2919H11.146V18.7676H3.52433V3.52432H18.7676V11.1459H20.292V3.52432C20.292 3.10514 20.1427 2.74628 19.8442 2.44777C19.5457 2.14926 19.1868 2 18.7676 2H3.52433C3.10514 2 2.74629 2.14926 2.44777 2.44777C2.14926 2.74628 2 3.10514 2 3.52432V18.7676C2 19.1868 2.14926 19.5456 2.44777 19.8441Z" fill="#62A09E"/>
<path d="M16.2271 11.1459V10.3838H6.06488V11.9081H11.5917C11.9642 11.4435 12.5366 11.1459 13.1784 11.1459H16.2271Z" fill="#62A09E"/>
<path d="M11.146 14.7027H6.06488V16.227H11.146V14.7027Z" fill="#62A09E"/>
<path d="M16.2271 7.58919H6.06488V6.06487H16.2271V7.58919Z" fill="#62A09E"/>
<path d="M21.0486 12.4865H13.4378C12.9146 12.4865 12.4865 12.9146 12.4865 13.4378V22L14.3892 20.0973H21.0486C21.5719 20.0973 22 19.6692 22 19.1459V13.4378C22 12.9146 21.5719 12.4865 21.0486 12.4865Z" fill="#62A09E"/>
</svg>
