<svg width="24" height="24" viewBox="0 0 24 24" fill="none" xmlns="http://www.w3.org/2000/svg">
<path d="M7.41369 7.90073H17.4803C17.799 7.90073 18.0586 7.64109 18.0586 7.32246V7.29885C18.0586 6.98021 17.799 6.72058 17.4803 6.72058H17.1617C17.1617 4.97397 16.2058 3.47518 14.8014 2.64908V3.77022C14.8014 4.10066 14.5418 4.36029 14.2113 4.36029C13.8809 4.36029 13.6213 4.10066 13.6213 3.77022V2.16522C13.2436 2.07081 12.8542 2 12.4411 2C12.0281 2 11.6386 2.07081 11.261 2.16522V3.77022C11.261 4.10066 11.0013 4.36029 10.6709 4.36029C10.3404 4.36029 10.0808 4.10066 10.0808 3.77022V2.64908C8.67644 3.47518 7.72053 4.97397 7.72053 6.72058H7.41369C7.09505 6.72058 6.83542 6.98021 6.83542 7.29885V7.33426C6.83542 7.64109 7.09505 7.90073 7.41369 7.90073Z" fill="#4E7F7C"/>
<path d="M12.4412 14.9813C9.29017 14.9813 3 16.5627 3 19.7019V22.0621H21.8823V19.7019C21.8823 16.5627 15.5921 14.9813 12.4412 14.9813Z" fill="#4E7F7C"/>
<path d="M16.9967 9.0812C16.4656 11.1111 14.6364 12.6216 12.4413 12.6216C10.2462 12.6216 8.417 11.1111 7.88594 9.0812H16.9967Z" fill="#4E7F7C"/>
</svg>
