<svg width="16" height="16" viewBox="0 0 16 16" fill="none" xmlns="http://www.w3.org/2000/svg">
<path d="M2.0194 8.28645C1.64776 8.69883 1.42064 9.23492 1.42064 9.83288C1.42064 11.0906 2.43234 12.101 3.69181 12.101C4.26992 12.101 4.78609 11.8948 5.17839 11.5443C5.26097 11.4618 5.34356 11.3793 5.42615 11.2968C5.48809 11.235 5.52939 11.1731 5.57068 11.0906C5.81844 10.7401 5.94232 10.3071 5.94232 9.83288C5.94232 9.09059 5.59133 8.43078 5.03386 8.0184C5.03386 8.0184 4.49704 7.54416 3.67116 7.56478C2.92787 7.56478 2.32911 6.96682 2.32911 6.22454C2.32911 5.48225 2.94852 4.84306 3.69181 4.84306C4.4351 4.84306 5.03386 5.44101 5.03386 6.1833C5.03386 6.55444 4.88933 6.88435 4.66221 7.11116C4.62092 7.1524 4.55898 7.21425 4.49704 7.25549C4.49704 7.25549 5.11645 7.46168 5.34356 7.72973L5.42615 7.62664C5.48809 7.56478 5.52939 7.50292 5.57068 7.42044C5.81844 7.06992 5.94232 6.63692 5.94232 6.16268C5.94232 4.90492 4.93062 3.89458 3.67116 3.89458C2.41169 3.89458 1.39999 4.90492 1.39999 6.16268C1.39999 6.90497 1.75099 7.56478 2.30846 7.97716C2.30846 7.97716 2.82463 8.4514 3.67116 8.43078C4.41445 8.41016 5.01321 9.02873 5.01321 9.77102C5.01321 10.1422 4.86868 10.4721 4.64157 10.6989C4.60027 10.7401 4.53833 10.802 4.47639 10.8432C4.41445 10.8845 4.37316 10.9257 4.31122 10.9463C4.12539 11.0494 3.89828 11.1113 3.67116 11.1113C2.92787 11.1113 2.32911 10.5133 2.32911 9.77102C2.32911 9.29678 2.57687 8.8844 2.94852 8.63697C2.94852 8.63697 2.51493 8.53387 2.08134 8.26583L2.0194 8.28645Z" fill="#099DBD"/>
<path d="M10.8771 8.28678C10.5055 8.69916 10.2784 9.23525 10.2784 9.83321C10.2784 11.091 11.2901 12.1013 12.5495 12.1013C13.1277 12.1013 13.6438 11.8951 14.0361 11.5446C14.1187 11.4621 14.2013 11.3796 14.2839 11.2972C14.3458 11.2353 14.3871 11.1734 14.4284 11.091C14.6762 10.7404 14.8001 10.3074 14.8001 9.83321C14.8001 9.09092 14.4491 8.43111 13.8916 8.01873C13.8916 8.01873 13.3548 7.54449 12.5289 7.56511C11.7856 7.56511 11.1868 6.96715 11.1868 6.22487C11.1868 5.48258 11.7856 4.88463 12.5289 4.88463C13.2722 4.88463 13.8709 5.48258 13.8709 6.22487C13.8709 6.59601 13.7264 6.92592 13.4993 7.15273C13.458 7.19396 13.3961 7.25582 13.3341 7.29706C13.3341 7.29706 13.9535 7.50325 14.1807 7.7713L14.2632 7.6682C14.3252 7.60635 14.3665 7.54449 14.4078 7.46201C14.6555 7.11149 14.7794 6.67849 14.7794 6.20425C14.7794 4.94648 13.7677 3.93615 12.5083 3.93615C11.2488 3.93615 10.2371 4.94648 10.2371 6.20425C10.2371 6.94653 10.5881 7.60635 11.1456 8.01873C11.1456 8.01873 11.6617 8.49297 12.5083 8.47235C13.2515 8.45173 13.8503 9.0703 13.8503 9.81259C13.8503 10.1837 13.7058 10.5136 13.4787 10.7404C13.4374 10.7817 13.3754 10.8435 13.3135 10.8848C13.2515 10.926 13.2102 10.9673 13.1483 10.9879C12.9625 11.091 12.7354 11.1528 12.5083 11.1528C11.765 11.1528 11.1662 10.5549 11.1662 9.81259C11.1662 9.33835 11.414 8.92597 11.7856 8.67854C11.7856 8.67854 11.352 8.57544 10.9184 8.30739L10.8771 8.28678Z" fill="#099DBD"/>
<path d="M8.37838 5.3384C8.79131 5.70955 9.32814 5.93636 9.9269 5.93636C11.1864 5.93636 12.1981 4.92602 12.1981 3.66826C12.1981 3.09092 11.9916 2.57545 11.6406 2.18368C11.558 2.10121 11.4754 2.01873 11.3928 1.93625C11.3309 1.8744 11.2689 1.83316 11.1864 1.79192C10.8147 1.54449 10.3811 1.40016 9.90625 1.40016C9.16296 1.40016 8.50226 1.75068 8.08932 2.3074C8.08932 2.3074 7.61444 2.84349 7.63509 3.66826C7.63509 4.41054 7.03632 5.0085 6.29303 5.0085C5.54974 5.0085 4.95098 4.41054 4.95098 3.66826C4.95098 2.92597 5.54974 2.32802 6.29303 2.32802C6.66468 2.32802 6.99503 2.47235 7.22215 2.69916C7.26344 2.7404 7.32538 2.80226 7.36667 2.86411C7.36667 2.86411 7.57314 2.24554 7.84155 2.01873L7.73832 1.93625C7.67638 1.8744 7.61444 1.83316 7.53185 1.79192C7.18085 1.54449 6.74727 1.42078 6.27239 1.42078C5.01292 1.42078 4.00122 2.43111 4.00122 3.68888C4.00122 4.94664 5.01292 5.95698 6.27239 5.95698C7.01568 5.95698 7.67638 5.60645 8.08932 5.04974C8.08932 5.04974 8.5642 4.53426 8.54355 3.68888C8.5229 2.94659 9.14231 2.34864 9.8856 2.34864C10.2572 2.34864 10.5876 2.49297 10.8147 2.71978C10.856 2.76102 10.9179 2.82287 10.9592 2.88473C11.0005 2.94659 11.0418 2.98783 11.0625 3.04968C11.1657 3.23526 11.2277 3.46207 11.2277 3.68888C11.2277 4.43116 10.6289 5.02912 9.8856 5.02912C9.41072 5.02912 8.99778 4.78169 8.75002 4.41054C8.75002 4.41054 8.64679 4.84354 8.37838 5.27655V5.3384Z" fill="#099DBD"/>
<path d="M8.37851 14.0188C8.79145 14.39 9.32827 14.6168 9.92703 14.6168C11.1865 14.6168 12.1982 13.6064 12.1982 12.3487C12.1982 11.7713 11.9917 11.2559 11.6407 10.8641C11.5581 10.7816 11.4756 10.6991 11.393 10.6167C11.331 10.5548 11.2691 10.5136 11.1865 10.4723C10.8355 10.2249 10.4019 10.1012 9.92703 10.1012C9.18374 10.1012 8.52304 10.4517 8.1101 11.0084C8.1101 11.0084 7.63522 11.5445 7.65587 12.3693C7.65587 13.1116 7.05711 13.7095 6.31382 13.7095C5.57053 13.7095 4.97176 13.1116 4.97176 12.3693C4.97176 11.627 5.57053 11.0291 6.31382 11.0291C6.68546 11.0291 7.01581 11.1734 7.24293 11.4002C7.28422 11.4414 7.34616 11.5033 7.38746 11.5651C7.38746 11.5651 7.59393 10.9466 7.86234 10.7198L7.7591 10.6373C7.69716 10.5754 7.63522 10.5342 7.55263 10.493C7.20164 10.2455 6.76805 10.1218 6.29317 10.1218C5.03371 10.1218 4.022 11.1321 4.022 12.3899C4.022 13.6477 5.03371 14.658 6.29317 14.658C7.03646 14.658 7.69716 14.3075 8.1101 13.7508C8.1101 13.7508 8.58498 13.2353 8.56433 12.3899C8.54369 11.6476 9.1631 11.0497 9.90639 11.0497C10.278 11.0497 10.6084 11.194 10.8355 11.4208C10.8768 11.4621 10.9387 11.5239 10.98 11.5858C11.0213 11.6476 11.0626 11.6889 11.0833 11.7507C11.1865 11.9363 11.2484 12.1631 11.2484 12.3899C11.2484 13.1322 10.6497 13.7302 9.90639 13.7302C9.43151 13.7302 9.01857 13.4827 8.7708 13.1116C8.7708 13.1116 8.66757 13.5446 8.39916 13.9776L8.37851 14.0188Z" fill="#099DBD"/>
</svg>
