<svg width="75" height="26" viewBox="0 0 75 26" fill="none" xmlns="http://www.w3.org/2000/svg">
<path d="M0 8C0 3.58172 3.58172 0 8 0H67C71.4183 0 75 3.58172 75 8V18C75 22.4183 71.4183 26 67 26H8C3.58172 26 0 22.4183 0 18V8Z" fill="#EFF6F5"/>
<path d="M11.4944 6.39922L14.0935 5.56665L16.2764 12.3841C16.3248 12.5352 16.2222 12.6926 16.0647 12.7097L14.5659 12.8734C14.273 12.9055 13.9946 12.7374 13.8869 12.4634L11.4944 6.39922Z" fill="#00695C"/>
<path d="M23.6121 7.52212L24.4446 10.1212L17.6272 12.3041C17.4761 12.3526 17.3186 12.2499 17.3016 12.0925L17.1379 10.5936C17.1058 10.3007 17.2739 10.0224 17.5479 9.91467L23.6121 7.52212Z" fill="#00695C"/>
<path d="M22.5162 19.631L19.9171 20.4635L17.7343 13.6461C17.6858 13.495 17.7885 13.3375 17.9459 13.3205L19.4448 13.1568C19.7376 13.1247 20.016 13.2928 20.1237 13.5668L22.5162 19.631Z" fill="#00695C"/>
<path d="M10.3992 18.5074L9.56665 15.9083L16.3841 13.7255C16.5352 13.677 16.6926 13.7797 16.7096 13.9371L16.8734 15.436C16.9055 15.7288 16.7374 16.0072 16.4634 16.1149L10.3992 18.5074Z" fill="#00695C"/>
<path d="M35.642 9.47C35.11 9.47 34.6293 9.56333 34.2 9.75C33.7707 9.92733 33.4067 10.1933 33.108 10.548C32.8093 10.8933 32.5807 11.318 32.422 11.822C32.2633 12.3167 32.184 12.8767 32.184 13.502C32.184 14.3233 32.31 15.0373 32.562 15.644C32.8233 16.2507 33.206 16.7173 33.71 17.044C34.2233 17.3707 34.8627 17.534 35.628 17.534C36.0667 17.534 36.482 17.4967 36.874 17.422C37.266 17.3473 37.6487 17.254 38.022 17.142V18.234C37.6487 18.374 37.2613 18.4767 36.86 18.542C36.468 18.6073 35.9967 18.64 35.446 18.64C34.4287 18.64 33.5793 18.43 32.898 18.01C32.2167 17.59 31.7033 16.9927 31.358 16.218C31.022 15.4433 30.854 14.5333 30.854 13.488C30.854 12.732 30.9567 12.0413 31.162 11.416C31.3767 10.7907 31.6847 10.2493 32.086 9.792C32.4967 9.33467 33.0007 8.98467 33.598 8.742C34.1953 8.49 34.8813 8.364 35.656 8.364C36.1693 8.364 36.664 8.41533 37.14 8.518C37.616 8.62067 38.0407 8.76533 38.414 8.952L37.91 10.016C37.602 9.876 37.2567 9.75 36.874 9.638C36.5007 9.526 36.09 9.47 35.642 9.47ZM43.5357 10.856C43.6757 10.856 43.825 10.8653 43.9837 10.884C44.1517 10.8933 44.2964 10.912 44.4177 10.94L44.2637 12.074C44.1424 12.046 44.007 12.0227 43.8577 12.004C43.7177 11.9853 43.5824 11.976 43.4517 11.976C43.1624 11.976 42.887 12.0367 42.6257 12.158C42.3644 12.2793 42.131 12.452 41.9257 12.676C41.7204 12.8907 41.557 13.152 41.4357 13.46C41.3237 13.768 41.2677 14.1133 41.2677 14.496V18.5H40.0357V10.996H41.0437L41.1837 12.368H41.2397C41.3984 12.088 41.5897 11.836 41.8137 11.612C42.0377 11.3787 42.2944 11.1967 42.5837 11.066C42.873 10.926 43.1904 10.856 43.5357 10.856ZM52.0695 14.734C52.0695 15.3593 51.9855 15.9147 51.8175 16.4C51.6588 16.876 51.4255 17.282 51.1175 17.618C50.8188 17.954 50.4501 18.2107 50.0115 18.388C49.5821 18.556 49.1015 18.64 48.5695 18.64C48.0748 18.64 47.6175 18.556 47.1975 18.388C46.7775 18.2107 46.4135 17.954 46.1055 17.618C45.7975 17.282 45.5548 16.876 45.3775 16.4C45.2095 15.9147 45.1255 15.3593 45.1255 14.734C45.1255 13.9033 45.2655 13.2033 45.5455 12.634C45.8255 12.0553 46.2268 11.6167 46.7495 11.318C47.2721 11.01 47.8928 10.856 48.6115 10.856C49.2928 10.856 49.8901 11.01 50.4035 11.318C50.9261 11.6167 51.3321 12.0553 51.6215 12.634C51.9201 13.2033 52.0695 13.9033 52.0695 14.734ZM46.3995 14.734C46.3995 15.322 46.4741 15.8353 46.6235 16.274C46.7821 16.7033 47.0248 17.0347 47.3515 17.268C47.6781 17.5013 48.0935 17.618 48.5975 17.618C49.1015 17.618 49.5168 17.5013 49.8435 17.268C50.1701 17.0347 50.4081 16.7033 50.5575 16.274C50.7161 15.8353 50.7955 15.322 50.7955 14.734C50.7955 14.1367 50.7161 13.628 50.5575 13.208C50.3988 12.788 50.1561 12.466 49.8295 12.242C49.5121 12.0087 49.0968 11.892 48.5835 11.892C47.8181 11.892 47.2628 12.144 46.9175 12.648C46.5721 13.152 46.3995 13.8473 46.3995 14.734ZM58.908 16.428C58.908 16.9133 58.7867 17.3193 58.544 17.646C58.3014 17.9727 57.956 18.22 57.508 18.388C57.06 18.556 56.528 18.64 55.912 18.64C55.3894 18.64 54.9367 18.598 54.554 18.514C54.1807 18.43 53.8494 18.3133 53.56 18.164V17.044C53.8587 17.1933 54.218 17.3333 54.638 17.464C55.0674 17.5853 55.5014 17.646 55.94 17.646C56.5654 17.646 57.018 17.548 57.298 17.352C57.578 17.1467 57.718 16.876 57.718 16.54C57.718 16.3533 57.6667 16.1853 57.564 16.036C57.4614 15.8867 57.2747 15.7373 57.004 15.588C56.7427 15.4387 56.3647 15.2707 55.87 15.084C55.3847 14.8973 54.9694 14.7107 54.624 14.524C54.2787 14.3373 54.0127 14.1133 53.826 13.852C53.6394 13.5907 53.546 13.2547 53.546 12.844C53.546 12.2093 53.8027 11.7193 54.316 11.374C54.8387 11.0287 55.52 10.856 56.36 10.856C56.8174 10.856 57.242 10.9027 57.634 10.996C58.0354 11.08 58.4087 11.2013 58.754 11.36L58.334 12.34C58.1287 12.2467 57.9094 12.1673 57.676 12.102C57.452 12.0273 57.2234 11.9713 56.99 11.934C56.7567 11.8873 56.5187 11.864 56.276 11.864C55.772 11.864 55.3847 11.948 55.114 12.116C54.8527 12.2747 54.722 12.494 54.722 12.774C54.722 12.9793 54.7827 13.1567 54.904 13.306C55.0254 13.446 55.226 13.586 55.506 13.726C55.7954 13.8567 56.178 14.0153 56.654 14.202C57.13 14.3793 57.536 14.5613 57.872 14.748C58.208 14.9347 58.4647 15.1633 58.642 15.434C58.8194 15.6953 58.908 16.0267 58.908 16.428ZM65.6073 16.428C65.6073 16.9133 65.4859 17.3193 65.2433 17.646C65.0006 17.9727 64.6553 18.22 64.2073 18.388C63.7593 18.556 63.2273 18.64 62.6113 18.64C62.0886 18.64 61.6359 18.598 61.2533 18.514C60.8799 18.43 60.5486 18.3133 60.2593 18.164V17.044C60.5579 17.1933 60.9173 17.3333 61.3373 17.464C61.7666 17.5853 62.2006 17.646 62.6393 17.646C63.2646 17.646 63.7173 17.548 63.9973 17.352C64.2773 17.1467 64.4173 16.876 64.4173 16.54C64.4173 16.3533 64.3659 16.1853 64.2633 16.036C64.1606 15.8867 63.9739 15.7373 63.7033 15.588C63.4419 15.4387 63.0639 15.2707 62.5693 15.084C62.0839 14.8973 61.6686 14.7107 61.3233 14.524C60.9779 14.3373 60.7119 14.1133 60.5253 13.852C60.3386 13.5907 60.2453 13.2547 60.2453 12.844C60.2453 12.2093 60.5019 11.7193 61.0153 11.374C61.5379 11.0287 62.2193 10.856 63.0593 10.856C63.5166 10.856 63.9413 10.9027 64.3333 10.996C64.7346 11.08 65.1079 11.2013 65.4533 11.36L65.0333 12.34C64.8279 12.2467 64.6086 12.1673 64.3753 12.102C64.1513 12.0273 63.9226 11.9713 63.6893 11.934C63.4559 11.8873 63.2179 11.864 62.9753 11.864C62.4713 11.864 62.0839 11.948 61.8133 12.116C61.5519 12.2747 61.4213 12.494 61.4213 12.774C61.4213 12.9793 61.4819 13.1567 61.6033 13.306C61.7246 13.446 61.9253 13.586 62.2053 13.726C62.4946 13.8567 62.8773 14.0153 63.3533 14.202C63.8293 14.3793 64.2353 14.5613 64.5713 14.748C64.9073 14.9347 65.1639 15.1633 65.3413 15.434C65.5186 15.6953 65.6073 16.0267 65.6073 16.428Z" fill="#00695C"/>
</svg>
