<svg width="166" height="26" viewBox="0 0 166 26" fill="none" xmlns="http://www.w3.org/2000/svg">
<path d="M0 8C0 3.58172 3.58172 0 8 0H158C162.418 0 166 3.58172 166 8V18C166 22.4183 162.418 26 158 26H8C3.58173 26 0 22.4183 0 18V8Z" fill="#E7F4FB"/>
<path d="M23.75 12.325V6.92505H19.025V8.95005H14.975V6.92505H10.25V12.325H14.975V10.3H16.325V17.05H19.025V19.075H23.75V13.675H19.025V15.7H17.675V10.3H19.025V12.325H23.75ZM13.625 10.975H11.6V8.27505H13.625V10.975ZM20.375 15.025H22.4V17.725H20.375V15.025ZM20.375 8.27505H22.4V10.975H20.375V8.27505Z" fill="#275573"/>
<path d="M37.63 18.5L36.426 15.406H32.464L31.274 18.5H30L33.906 8.462H35.04L38.932 18.5H37.63ZM34.928 11.262C34.9 11.1873 34.8533 11.052 34.788 10.856C34.7227 10.66 34.6573 10.4593 34.592 10.254C34.536 10.0393 34.4893 9.876 34.452 9.764C34.4053 9.95067 34.354 10.142 34.298 10.338C34.2513 10.5247 34.2 10.6973 34.144 10.856C34.0973 11.0147 34.0553 11.15 34.018 11.262L32.884 14.286H36.048L34.928 11.262ZM36.524 5.424C36.44 5.55467 36.3187 5.71333 36.16 5.9C36.0013 6.08667 35.824 6.28267 35.628 6.488C35.4413 6.684 35.25 6.87533 35.054 7.062C34.8673 7.23933 34.69 7.39333 34.522 7.524H33.71V7.356C33.85 7.17867 33.9993 6.96867 34.158 6.726C34.326 6.48333 34.4893 6.236 34.648 5.984C34.8067 5.72267 34.9373 5.48933 35.04 5.284H36.524V5.424ZM43.6314 10.856C43.7714 10.856 43.9207 10.8653 44.0794 10.884C44.2474 10.8933 44.3921 10.912 44.5134 10.94L44.3594 12.074C44.2381 12.046 44.1027 12.0227 43.9534 12.004C43.8134 11.9853 43.6781 11.976 43.5474 11.976C43.2581 11.976 42.9827 12.0367 42.7214 12.158C42.4601 12.2793 42.2267 12.452 42.0214 12.676C41.8161 12.8907 41.6527 13.152 41.5314 13.46C41.4194 13.768 41.3634 14.1133 41.3634 14.496V18.5H40.1314V10.996H41.1394L41.2794 12.368H41.3354C41.4941 12.088 41.6854 11.836 41.9094 11.612C42.1334 11.3787 42.3901 11.1967 42.6794 11.066C42.9687 10.926 43.2861 10.856 43.6314 10.856ZM47.5666 18.5L44.7246 10.996H46.0406L47.6366 15.42C47.7113 15.6253 47.7906 15.854 47.8746 16.106C47.9586 16.358 48.0333 16.6007 48.0986 16.834C48.1639 17.058 48.2106 17.2493 48.2386 17.408H48.2946C48.3319 17.2493 48.3833 17.0533 48.4486 16.82C48.5233 16.5867 48.6026 16.344 48.6866 16.092C48.7799 15.84 48.8593 15.616 48.9246 15.42L50.5206 10.996H51.8366L48.9806 18.5H47.5666ZM59.548 14.734C59.548 15.3593 59.464 15.9147 59.296 16.4C59.1373 16.876 58.904 17.282 58.596 17.618C58.2973 17.954 57.9287 18.2107 57.49 18.388C57.0607 18.556 56.58 18.64 56.048 18.64C55.5533 18.64 55.096 18.556 54.676 18.388C54.256 18.2107 53.892 17.954 53.584 17.618C53.276 17.282 53.0333 16.876 52.856 16.4C52.688 15.9147 52.604 15.3593 52.604 14.734C52.604 13.9033 52.744 13.2033 53.024 12.634C53.304 12.0553 53.7053 11.6167 54.228 11.318C54.7507 11.01 55.3713 10.856 56.09 10.856C56.7713 10.856 57.3687 11.01 57.882 11.318C58.4047 11.6167 58.8107 12.0553 59.1 12.634C59.3987 13.2033 59.548 13.9033 59.548 14.734ZM53.878 14.734C53.878 15.322 53.9527 15.8353 54.102 16.274C54.2607 16.7033 54.5033 17.0347 54.83 17.268C55.1567 17.5013 55.572 17.618 56.076 17.618C56.58 17.618 56.9953 17.5013 57.322 17.268C57.6487 17.0347 57.8867 16.7033 58.036 16.274C58.1947 15.8353 58.274 15.322 58.274 14.734C58.274 14.1367 58.1947 13.628 58.036 13.208C57.8773 12.788 57.6347 12.466 57.308 12.242C56.9907 12.0087 56.5753 11.892 56.062 11.892C55.2967 11.892 54.7413 12.144 54.396 12.648C54.0507 13.152 53.878 13.8473 53.878 14.734ZM65.0005 10.856C65.1405 10.856 65.2899 10.8653 65.4485 10.884C65.6165 10.8933 65.7612 10.912 65.8825 10.94L65.7285 12.074C65.6072 12.046 65.4719 12.0227 65.3225 12.004C65.1825 11.9853 65.0472 11.976 64.9165 11.976C64.6272 11.976 64.3519 12.0367 64.0905 12.158C63.8292 12.2793 63.5959 12.452 63.3905 12.676C63.1852 12.8907 63.0219 13.152 62.9005 13.46C62.7885 13.768 62.7325 14.1133 62.7325 14.496V18.5H61.5005V10.996H62.5085L62.6485 12.368H62.7045C62.8632 12.088 63.0545 11.836 63.2785 11.612C63.5025 11.3787 63.7592 11.1967 64.0485 11.066C64.3379 10.926 64.6552 10.856 65.0005 10.856ZM69.9083 10.856C70.5523 10.856 71.103 10.996 71.5603 11.276C72.027 11.556 72.3816 11.9527 72.6243 12.466C72.8763 12.97 73.0023 13.5627 73.0023 14.244V14.986H67.8643C67.883 15.8353 68.0976 16.484 68.5083 16.932C68.9283 17.3707 69.5116 17.59 70.2583 17.59C70.7343 17.59 71.1543 17.548 71.5183 17.464C71.8916 17.3707 72.2743 17.24 72.6663 17.072V18.15C72.2836 18.318 71.9056 18.4393 71.5323 18.514C71.159 18.598 70.7156 18.64 70.2023 18.64C69.493 18.64 68.863 18.4953 68.3123 18.206C67.771 17.9167 67.3463 17.4873 67.0383 16.918C66.7396 16.3393 66.5903 15.6347 66.5903 14.804C66.5903 13.9827 66.7256 13.278 66.9963 12.69C67.2763 12.102 67.6636 11.6493 68.1583 11.332C68.6623 11.0147 69.2456 10.856 69.9083 10.856ZM69.8943 11.864C69.3063 11.864 68.8396 12.0553 68.4943 12.438C68.1583 12.8113 67.9576 13.334 67.8923 14.006H71.7143C71.7143 13.5767 71.649 13.2033 71.5183 12.886C71.3876 12.5687 71.187 12.3213 70.9163 12.144C70.655 11.9573 70.3143 11.864 69.8943 11.864ZM81.2094 18.64C80.276 18.64 79.5294 18.318 78.9694 17.674C78.4094 17.0207 78.1294 16.05 78.1294 14.762C78.1294 13.474 78.4094 12.5033 78.9694 11.85C79.5387 11.1873 80.29 10.856 81.2234 10.856C81.6154 10.856 81.956 10.9073 82.2454 11.01C82.5347 11.1033 82.7867 11.234 83.0014 11.402C83.216 11.57 83.398 11.7567 83.5474 11.962H83.6314C83.622 11.8407 83.6034 11.6633 83.5754 11.43C83.5567 11.1873 83.5474 10.996 83.5474 10.856V7.86H84.7794V18.5H83.7854L83.6034 17.492H83.5474C83.398 17.7067 83.216 17.9027 83.0014 18.08C82.7867 18.248 82.53 18.3833 82.2314 18.486C81.942 18.5887 81.6014 18.64 81.2094 18.64ZM81.4054 17.618C82.1987 17.618 82.754 17.4033 83.0714 16.974C83.398 16.5353 83.5614 15.8773 83.5614 15V14.776C83.5614 13.8427 83.4074 13.1287 83.0994 12.634C82.7914 12.13 82.222 11.878 81.3914 11.878C80.7287 11.878 80.2294 12.144 79.8934 12.676C79.5667 13.1987 79.4034 13.9033 79.4034 14.79C79.4034 15.686 79.5667 16.3813 79.8934 16.876C80.2294 17.3707 80.7334 17.618 81.4054 17.618ZM90.0607 10.856C90.7047 10.856 91.2553 10.996 91.7127 11.276C92.1793 11.556 92.534 11.9527 92.7767 12.466C93.0287 12.97 93.1547 13.5627 93.1547 14.244V14.986H88.0167C88.0353 15.8353 88.25 16.484 88.6607 16.932C89.0807 17.3707 89.664 17.59 90.4107 17.59C90.8867 17.59 91.3067 17.548 91.6707 17.464C92.044 17.3707 92.4267 17.24 92.8187 17.072V18.15C92.436 18.318 92.058 18.4393 91.6847 18.514C91.3113 18.598 90.868 18.64 90.3547 18.64C89.6453 18.64 89.0153 18.4953 88.4647 18.206C87.9233 17.9167 87.4987 17.4873 87.1907 16.918C86.892 16.3393 86.7427 15.6347 86.7427 14.804C86.7427 13.9827 86.878 13.278 87.1487 12.69C87.4287 12.102 87.816 11.6493 88.3107 11.332C88.8147 11.0147 89.398 10.856 90.0607 10.856ZM90.0467 11.864C89.4587 11.864 88.992 12.0553 88.6467 12.438C88.3107 12.8113 88.11 13.334 88.0447 14.006H91.8667C91.8667 13.5767 91.8013 13.2033 91.6707 12.886C91.54 12.5687 91.3393 12.3213 91.0687 12.144C90.8073 11.9573 90.4667 11.864 90.0467 11.864ZM101.628 8.504C102.458 8.504 103.14 8.61133 103.672 8.826C104.213 9.03133 104.614 9.344 104.876 9.764C105.137 10.184 105.268 10.7113 105.268 11.346C105.268 11.878 105.17 12.3213 104.974 12.676C104.778 13.0307 104.526 13.3153 104.218 13.53C103.919 13.7353 103.602 13.8987 103.266 14.02L106.01 18.5H104.54L102.118 14.37H100.13V18.5H98.8697V8.504H101.628ZM101.558 9.596H100.13V13.306H101.628C102.169 13.306 102.612 13.236 102.958 13.096C103.303 12.9467 103.555 12.732 103.714 12.452C103.882 12.172 103.966 11.822 103.966 11.402C103.966 10.9633 103.877 10.6133 103.7 10.352C103.532 10.0907 103.27 9.89933 102.916 9.778C102.561 9.65667 102.108 9.596 101.558 9.596ZM110.309 10.856C110.953 10.856 111.503 10.996 111.961 11.276C112.427 11.556 112.782 11.9527 113.025 12.466C113.277 12.97 113.403 13.5627 113.403 14.244V14.986H108.265C108.283 15.8353 108.498 16.484 108.909 16.932C109.329 17.3707 109.912 17.59 110.659 17.59C111.135 17.59 111.555 17.548 111.919 17.464C112.292 17.3707 112.675 17.24 113.067 17.072V18.15C112.684 18.318 112.306 18.4393 111.933 18.514C111.559 18.598 111.116 18.64 110.603 18.64C109.893 18.64 109.263 18.4953 108.713 18.206C108.171 17.9167 107.747 17.4873 107.439 16.918C107.14 16.3393 106.991 15.6347 106.991 14.804C106.991 13.9827 107.126 13.278 107.397 12.69C107.677 12.102 108.064 11.6493 108.559 11.332C109.063 11.0147 109.646 10.856 110.309 10.856ZM110.295 11.864C109.707 11.864 109.24 12.0553 108.895 12.438C108.559 12.8113 108.358 13.334 108.293 14.006H112.115C112.115 13.5767 112.049 13.2033 111.919 12.886C111.788 12.5687 111.587 12.3213 111.317 12.144C111.055 11.9573 110.715 11.864 110.295 11.864ZM118.323 18.64C117.66 18.64 117.068 18.5047 116.545 18.234C116.032 17.9633 115.626 17.5433 115.327 16.974C115.038 16.4047 114.893 15.6767 114.893 14.79C114.893 13.866 115.047 13.1147 115.355 12.536C115.663 11.9573 116.078 11.5327 116.601 11.262C117.133 10.9913 117.735 10.856 118.407 10.856C118.79 10.856 119.158 10.898 119.513 10.982C119.868 11.0567 120.157 11.15 120.381 11.262L120.003 12.284C119.779 12.2 119.518 12.1207 119.219 12.046C118.92 11.9713 118.64 11.934 118.379 11.934C117.875 11.934 117.46 12.0413 117.133 12.256C116.806 12.4707 116.564 12.788 116.405 13.208C116.246 13.628 116.167 14.1507 116.167 14.776C116.167 15.3733 116.246 15.882 116.405 16.302C116.564 16.722 116.802 17.0393 117.119 17.254C117.436 17.4687 117.833 17.576 118.309 17.576C118.72 17.576 119.079 17.534 119.387 17.45C119.704 17.366 119.994 17.2633 120.255 17.142V18.234C120.003 18.3647 119.723 18.4627 119.415 18.528C119.116 18.6027 118.752 18.64 118.323 18.64ZM128.312 10.996V18.5H127.304L127.122 17.506H127.066C126.907 17.7673 126.702 17.982 126.45 18.15C126.198 18.318 125.922 18.4393 125.624 18.514C125.325 18.598 125.012 18.64 124.686 18.64C124.088 18.64 123.584 18.5467 123.174 18.36C122.772 18.164 122.469 17.8653 122.264 17.464C122.058 17.0627 121.956 16.5447 121.956 15.91V10.996H123.202V15.826C123.202 16.4233 123.337 16.8713 123.608 17.17C123.878 17.4687 124.298 17.618 124.868 17.618C125.428 17.618 125.866 17.5153 126.184 17.31C126.51 17.0953 126.739 16.7873 126.87 16.386C127.01 15.9753 127.08 15.4807 127.08 14.902V10.996H128.312ZM134.194 10.856C134.334 10.856 134.483 10.8653 134.642 10.884C134.81 10.8933 134.955 10.912 135.076 10.94L134.922 12.074C134.801 12.046 134.665 12.0227 134.516 12.004C134.376 11.9853 134.241 11.976 134.11 11.976C133.821 11.976 133.545 12.0367 133.284 12.158C133.023 12.2793 132.789 12.452 132.584 12.676C132.379 12.8907 132.215 13.152 132.094 13.46C131.982 13.768 131.926 14.1133 131.926 14.496V18.5H130.694V10.996H131.702L131.842 12.368H131.898C132.057 12.088 132.248 11.836 132.472 11.612C132.696 11.3787 132.953 11.1967 133.242 11.066C133.531 10.926 133.849 10.856 134.194 10.856ZM141.363 16.428C141.363 16.9133 141.242 17.3193 140.999 17.646C140.756 17.9727 140.411 18.22 139.963 18.388C139.515 18.556 138.983 18.64 138.367 18.64C137.844 18.64 137.392 18.598 137.009 18.514C136.636 18.43 136.304 18.3133 136.015 18.164V17.044C136.314 17.1933 136.673 17.3333 137.093 17.464C137.522 17.5853 137.956 17.646 138.395 17.646C139.02 17.646 139.473 17.548 139.753 17.352C140.033 17.1467 140.173 16.876 140.173 16.54C140.173 16.3533 140.122 16.1853 140.019 16.036C139.916 15.8867 139.73 15.7373 139.459 15.588C139.198 15.4387 138.82 15.2707 138.325 15.084C137.84 14.8973 137.424 14.7107 137.079 14.524C136.734 14.3373 136.468 14.1133 136.281 13.852C136.094 13.5907 136.001 13.2547 136.001 12.844C136.001 12.2093 136.258 11.7193 136.771 11.374C137.294 11.0287 137.975 10.856 138.815 10.856C139.272 10.856 139.697 10.9027 140.089 10.996C140.49 11.08 140.864 11.2013 141.209 11.36L140.789 12.34C140.584 12.2467 140.364 12.1673 140.131 12.102C139.907 12.0273 139.678 11.9713 139.445 11.934C139.212 11.8873 138.974 11.864 138.731 11.864C138.227 11.864 137.84 11.948 137.569 12.116C137.308 12.2747 137.177 12.494 137.177 12.774C137.177 12.9793 137.238 13.1567 137.359 13.306C137.48 13.446 137.681 13.586 137.961 13.726C138.25 13.8567 138.633 14.0153 139.109 14.202C139.585 14.3793 139.991 14.5613 140.327 14.748C140.663 14.9347 140.92 15.1633 141.097 15.434C141.274 15.6953 141.363 16.0267 141.363 16.428ZM149.7 14.734C149.7 15.3593 149.616 15.9147 149.448 16.4C149.29 16.876 149.056 17.282 148.748 17.618C148.45 17.954 148.081 18.2107 147.642 18.388C147.213 18.556 146.732 18.64 146.2 18.64C145.706 18.64 145.248 18.556 144.828 18.388C144.408 18.2107 144.044 17.954 143.736 17.618C143.428 17.282 143.186 16.876 143.008 16.4C142.84 15.9147 142.756 15.3593 142.756 14.734C142.756 13.9033 142.896 13.2033 143.176 12.634C143.456 12.0553 143.858 11.6167 144.38 11.318C144.903 11.01 145.524 10.856 146.242 10.856C146.924 10.856 147.521 11.01 148.034 11.318C148.557 11.6167 148.963 12.0553 149.252 12.634C149.551 13.2033 149.7 13.9033 149.7 14.734ZM144.03 14.734C144.03 15.322 144.105 15.8353 144.254 16.274C144.413 16.7033 144.656 17.0347 144.982 17.268C145.309 17.5013 145.724 17.618 146.228 17.618C146.732 17.618 147.148 17.5013 147.474 17.268C147.801 17.0347 148.039 16.7033 148.188 16.274C148.347 15.8353 148.426 15.322 148.426 14.734C148.426 14.1367 148.347 13.628 148.188 13.208C148.03 12.788 147.787 12.466 147.46 12.242C147.143 12.0087 146.728 11.892 146.214 11.892C145.449 11.892 144.894 12.144 144.548 12.648C144.203 13.152 144.03 13.8473 144.03 14.734ZM156.539 16.428C156.539 16.9133 156.418 17.3193 156.175 17.646C155.932 17.9727 155.587 18.22 155.139 18.388C154.691 18.556 154.159 18.64 153.543 18.64C153.02 18.64 152.568 18.598 152.185 18.514C151.812 18.43 151.48 18.3133 151.191 18.164V17.044C151.49 17.1933 151.849 17.3333 152.269 17.464C152.698 17.5853 153.132 17.646 153.571 17.646C154.196 17.646 154.649 17.548 154.929 17.352C155.209 17.1467 155.349 16.876 155.349 16.54C155.349 16.3533 155.298 16.1853 155.195 16.036C155.092 15.8867 154.906 15.7373 154.635 15.588C154.374 15.4387 153.996 15.2707 153.501 15.084C153.016 14.8973 152.6 14.7107 152.255 14.524C151.91 14.3373 151.644 14.1133 151.457 13.852C151.27 13.5907 151.177 13.2547 151.177 12.844C151.177 12.2093 151.434 11.7193 151.947 11.374C152.47 11.0287 153.151 10.856 153.991 10.856C154.448 10.856 154.873 10.9027 155.265 10.996C155.666 11.08 156.04 11.2013 156.385 11.36L155.965 12.34C155.76 12.2467 155.54 12.1673 155.307 12.102C155.083 12.0273 154.854 11.9713 154.621 11.934C154.388 11.8873 154.15 11.864 153.907 11.864C153.403 11.864 153.016 11.948 152.745 12.116C152.484 12.2747 152.353 12.494 152.353 12.774C152.353 12.9793 152.414 13.1567 152.535 13.306C152.656 13.446 152.857 13.586 153.137 13.726C153.426 13.8567 153.809 14.0153 154.285 14.202C154.761 14.3793 155.167 14.5613 155.503 14.748C155.839 14.9347 156.096 15.1633 156.273 15.434C156.45 15.6953 156.539 16.0267 156.539 16.428Z" fill="#275573"/>
</svg>
