<svg width="75" height="26" viewBox="0 0 75 26" fill="none" xmlns="http://www.w3.org/2000/svg">
<path d="M0 4C0 1.79086 1.79086 0 4 0H71C73.2091 0 75 1.79086 75 4V22C75 24.2091 73.2091 26 71 26H4C1.79086 26 0 24.2091 0 22V4Z" fill="#E6F7FF"/>
<path d="M11.6 6.25H22.4C23.1425 6.25 23.75 6.8575 23.75 7.6V15.7C23.75 16.4425 23.1425 17.05 22.4 17.05H18.35V15.0013C19.542 14.4778 20.375 13.2823 20.375 11.8913C20.375 10.5002 19.542 9.30472 18.35 8.78125V11.8913L17.675 12.5697H16.325L15.65 11.8913V8.78125C14.458 9.30472 13.625 10.5002 13.625 11.8913C13.625 13.2823 14.458 14.4778 15.65 15.0013V17.05H12.95L10.25 19.75V7.6C10.25 6.8575 10.8575 6.25 11.6 6.25Z" fill="#004664"/>
<path d="M34.004 8.504C35.3107 8.504 36.2627 8.76067 36.86 9.274C37.4573 9.78733 37.756 10.5107 37.756 11.444C37.756 11.8547 37.686 12.2513 37.546 12.634C37.4153 13.0073 37.196 13.3433 36.888 13.642C36.58 13.9407 36.1693 14.1787 35.656 14.356C35.1427 14.524 34.5127 14.608 33.766 14.608H32.618V18.5H31.358V8.504H34.004ZM33.892 9.582H32.618V13.53H33.626C34.2607 13.53 34.788 13.4647 35.208 13.334C35.628 13.194 35.9407 12.9747 36.146 12.676C36.3513 12.3773 36.454 11.9853 36.454 11.5C36.454 10.856 36.2487 10.3753 35.838 10.058C35.4273 9.74067 34.7787 9.582 33.892 9.582ZM43.1666 10.856C43.3066 10.856 43.4559 10.8653 43.6146 10.884C43.7826 10.8933 43.9272 10.912 44.0486 10.94L43.8946 12.074C43.7732 12.046 43.6379 12.0227 43.4886 12.004C43.3486 11.9853 43.2132 11.976 43.0826 11.976C42.7932 11.976 42.5179 12.0367 42.2566 12.158C41.9952 12.2793 41.7619 12.452 41.5566 12.676C41.3512 12.8907 41.1879 13.152 41.0666 13.46C40.9546 13.768 40.8986 14.1133 40.8986 14.496V18.5H39.6666V10.996H40.6746L40.8146 12.368H40.8706C41.0292 12.088 41.2206 11.836 41.4446 11.612C41.6686 11.3787 41.9252 11.1967 42.2146 11.066C42.5039 10.926 42.8212 10.856 43.1666 10.856ZM51.7003 14.734C51.7003 15.3593 51.6163 15.9147 51.4483 16.4C51.2897 16.876 51.0563 17.282 50.7483 17.618C50.4497 17.954 50.081 18.2107 49.6423 18.388C49.213 18.556 48.7323 18.64 48.2003 18.64C47.7057 18.64 47.2483 18.556 46.8283 18.388C46.4083 18.2107 46.0443 17.954 45.7363 17.618C45.4283 17.282 45.1857 16.876 45.0083 16.4C44.8403 15.9147 44.7563 15.3593 44.7563 14.734C44.7563 13.9033 44.8963 13.2033 45.1763 12.634C45.4563 12.0553 45.8577 11.6167 46.3803 11.318C46.903 11.01 47.5237 10.856 48.2423 10.856C48.9237 10.856 49.521 11.01 50.0343 11.318C50.557 11.6167 50.963 12.0553 51.2523 12.634C51.551 13.2033 51.7003 13.9033 51.7003 14.734ZM46.0303 14.734C46.0303 15.322 46.105 15.8353 46.2543 16.274C46.413 16.7033 46.6557 17.0347 46.9823 17.268C47.309 17.5013 47.7243 17.618 48.2283 17.618C48.7323 17.618 49.1477 17.5013 49.4743 17.268C49.801 17.0347 50.039 16.7033 50.1883 16.274C50.347 15.8353 50.4263 15.322 50.4263 14.734C50.4263 14.1367 50.347 13.628 50.1883 13.208C50.0297 12.788 49.787 12.466 49.4603 12.242C49.143 12.0087 48.7277 11.892 48.2143 11.892C47.449 11.892 46.8937 12.144 46.5483 12.648C46.203 13.152 46.0303 13.8473 46.0303 14.734ZM57.2649 10.856C58.1609 10.856 58.8376 11.0753 59.2949 11.514C59.7522 11.9433 59.9809 12.6433 59.9809 13.614V18.5H58.7629V13.698C58.7629 13.0913 58.6276 12.6387 58.3569 12.34C58.0862 12.0413 57.6616 11.892 57.0829 11.892C56.2522 11.892 55.6782 12.1253 55.3609 12.592C55.0436 13.0587 54.8849 13.7307 54.8849 14.608V18.5H53.6529V10.996H54.6469L54.8289 12.018H54.8989C55.0669 11.7567 55.2722 11.542 55.5149 11.374C55.7669 11.1967 56.0422 11.066 56.3409 10.982C56.6396 10.898 56.9476 10.856 57.2649 10.856ZM64.8132 17.632C64.9999 17.632 65.1912 17.618 65.3872 17.59C65.5832 17.5527 65.7419 17.5153 65.8632 17.478V18.416C65.7325 18.4813 65.5459 18.5327 65.3032 18.57C65.0605 18.6167 64.8272 18.64 64.6032 18.64C64.2112 18.64 63.8472 18.5747 63.5112 18.444C63.1845 18.304 62.9185 18.066 62.7132 17.73C62.5079 17.394 62.4052 16.9227 62.4052 16.316V11.948H61.3412V11.36L62.4192 10.87L62.9092 9.274H63.6372V10.996H65.8072V11.948H63.6372V16.288C63.6372 16.7453 63.7445 17.086 63.9592 17.31C64.1832 17.5247 64.4679 17.632 64.8132 17.632Z" fill="#004664"/>
</svg>
