<svg width="90" height="26" viewBox="0 0 90 26" fill="none" xmlns="http://www.w3.org/2000/svg">
<path d="M0 4C0 1.79086 1.79086 0 4 0H86C88.2091 0 90 1.79086 90 4V22C90 24.2091 88.2091 26 86 26H4C1.79086 26 0 24.2091 0 22V4Z" fill="#E1F1F5"/>
<path d="M10.2718 13.3223C9.85369 13.7862 9.59818 14.3893 9.59818 15.062C9.59818 16.477 10.7363 17.6136 12.1532 17.6136C12.8036 17.6136 13.3843 17.3817 13.8256 16.9873C13.9186 16.8945 14.0115 16.8017 14.1044 16.709C14.1741 16.6394 14.2205 16.5698 14.267 16.477C14.5457 16.0827 14.6851 15.5955 14.6851 15.062C14.6851 14.2269 14.2902 13.4846 13.663 13.0207C13.663 13.0207 13.0591 12.4872 12.13 12.5104C11.2938 12.5104 10.6202 11.8377 10.6202 11.0026C10.6202 10.1675 11.317 9.44846 12.1532 9.44846C12.9894 9.44846 13.663 10.1212 13.663 10.9562C13.663 11.3738 13.5005 11.7449 13.2449 12.0001C13.1985 12.0465 13.1288 12.1161 13.0591 12.1624C13.0591 12.1624 13.756 12.3944 14.0115 12.696L14.1044 12.58C14.1741 12.5104 14.2205 12.4408 14.267 12.348C14.5457 11.9537 14.6851 11.4666 14.6851 10.933C14.6851 9.51805 13.5469 8.38142 12.13 8.38142C10.7131 8.38142 9.57495 9.51805 9.57495 10.933C9.57495 11.7681 9.96982 12.5104 10.597 12.9743C10.597 12.9743 11.1777 13.5078 12.13 13.4846C12.9662 13.4614 13.6398 14.1573 13.6398 14.9924C13.6398 15.41 13.4772 15.7811 13.2217 16.0363C13.1753 16.0827 13.1056 16.1522 13.0359 16.1986C12.9662 16.245 12.9198 16.2914 12.8501 16.3146C12.641 16.4306 12.3855 16.5002 12.13 16.5002C11.2938 16.5002 10.6202 15.8275 10.6202 14.9924C10.6202 14.4589 10.8989 13.995 11.317 13.7166C11.317 13.7166 10.8293 13.6006 10.3415 13.2991L10.2718 13.3223Z" fill="#099DBD"/>
<path d="M20.2367 13.3226C19.8186 13.7866 19.5631 14.3897 19.5631 15.0624C19.5631 16.4774 20.7013 17.614 22.1182 17.614C22.7686 17.614 23.3493 17.382 23.7906 16.9877C23.8835 16.8949 23.9764 16.8021 24.0693 16.7093C24.139 16.6397 24.1855 16.5701 24.2319 16.4774C24.5107 16.083 24.65 15.5959 24.65 15.0624C24.65 14.2273 24.2552 13.485 23.628 13.0211C23.628 13.0211 23.0241 12.4876 22.095 12.5108C21.2588 12.5108 20.5852 11.8381 20.5852 11.003C20.5852 10.1679 21.2588 9.49522 22.095 9.49522C22.9312 9.49522 23.6048 10.1679 23.6048 11.003C23.6048 11.4205 23.4422 11.7917 23.1867 12.0468C23.1402 12.0932 23.0705 12.1628 23.0009 12.2092C23.0009 12.2092 23.6977 12.4412 23.9532 12.7427L24.0461 12.6267C24.1158 12.5572 24.1622 12.4876 24.2087 12.3948C24.4874 12.0004 24.6268 11.5133 24.6268 10.9798C24.6268 9.56481 23.4886 8.42818 22.0717 8.42818C20.6548 8.42818 19.5167 9.56481 19.5167 10.9798C19.5167 11.8149 19.9116 12.5572 20.5387 13.0211C20.5387 13.0211 21.1194 13.5546 22.0717 13.5314C22.9079 13.5082 23.5815 14.2041 23.5815 15.0392C23.5815 15.4567 23.419 15.8279 23.1634 16.083C23.117 16.1294 23.0473 16.199 22.9776 16.2454C22.9079 16.2918 22.8615 16.3382 22.7918 16.3614C22.5828 16.4774 22.3272 16.5469 22.0717 16.5469C21.2355 16.5469 20.5619 15.8743 20.5619 15.0392C20.5619 14.5057 20.8407 14.0417 21.2588 13.7634C21.2588 13.7634 20.771 13.6474 20.2832 13.3458L20.2367 13.3226Z" fill="#099DBD"/>
<path d="M17.4256 10.0057C17.8902 10.4233 18.4941 10.6784 19.1677 10.6784C20.5846 10.6784 21.7228 9.54179 21.7228 8.12681C21.7228 7.47731 21.4905 6.89739 21.0956 6.45666C21.0027 6.36388 20.9098 6.27109 20.8169 6.1783C20.7472 6.10871 20.6775 6.06232 20.5846 6.01593C20.1665 5.73757 19.6787 5.5752 19.1445 5.5752C18.3083 5.5752 17.565 5.96954 17.1004 6.59584C17.1004 6.59584 16.5662 7.19895 16.5894 8.12681C16.5894 8.96188 15.9158 9.63458 15.0796 9.63458C14.2434 9.63458 13.5698 8.96188 13.5698 8.12681C13.5698 7.29173 14.2434 6.61904 15.0796 6.61904C15.4977 6.61904 15.8694 6.78141 16.1249 7.03657C16.1713 7.08297 16.241 7.15256 16.2875 7.22214C16.2875 7.22214 16.5197 6.52625 16.8217 6.27109L16.7056 6.1783C16.6359 6.10871 16.5662 6.06232 16.4733 6.01593C16.0784 5.73757 15.5906 5.59839 15.0564 5.59839C13.6395 5.59839 12.5013 6.73502 12.5013 8.15C12.5013 9.56499 13.6395 10.7016 15.0564 10.7016C15.8926 10.7016 16.6359 10.3073 17.1004 9.68097C17.1004 9.68097 17.6347 9.10106 17.6115 8.15C17.5882 7.31493 18.2851 6.64223 19.1213 6.64223C19.5394 6.64223 19.911 6.80461 20.1665 7.05977C20.213 7.10616 20.2827 7.17575 20.3291 7.24534C20.3756 7.31493 20.422 7.36132 20.4452 7.43091C20.5614 7.63968 20.6311 7.89484 20.6311 8.15C20.6311 8.98508 19.9575 9.65777 19.1213 9.65777C18.587 9.65777 18.1225 9.37942 17.8437 8.96188C17.8437 8.96188 17.7276 9.44901 17.4256 9.93613V10.0057Z" fill="#099DBD"/>
<path d="M17.4258 19.7712C17.8903 20.1887 18.4943 20.4439 19.1679 20.4439C20.5848 20.4439 21.7229 19.3073 21.7229 17.8923C21.7229 17.2428 21.4907 16.6629 21.0958 16.2221C21.0029 16.1293 20.91 16.0366 20.817 15.9438C20.7474 15.8742 20.6777 15.8278 20.5848 15.7814C20.1899 15.503 19.7021 15.3639 19.1679 15.3639C18.3317 15.3639 17.5884 15.7582 17.1238 16.3845C17.1238 16.3845 16.5896 16.9876 16.6128 17.9155C16.6128 18.7505 15.9392 19.4232 15.103 19.4232C14.2668 19.4232 13.5932 18.7505 13.5932 17.9155C13.5932 17.0804 14.2668 16.4077 15.103 16.4077C15.5211 16.4077 15.8927 16.5701 16.1483 16.8252C16.1947 16.8716 16.2644 16.9412 16.3108 17.0108C16.3108 17.0108 16.5431 16.3149 16.8451 16.0598L16.7289 15.967C16.6593 15.8974 16.5896 15.851 16.4967 15.8046C16.1018 15.5262 15.614 15.3871 15.0798 15.3871C13.6629 15.3871 12.5247 16.5237 12.5247 17.9387C12.5247 19.3537 13.6629 20.4903 15.0798 20.4903C15.916 20.4903 16.6593 20.0959 17.1238 19.4696C17.1238 19.4696 17.6581 18.8897 17.6348 17.9387C17.6116 17.1036 18.3084 16.4309 19.1446 16.4309C19.5627 16.4309 19.9344 16.5933 20.1899 16.8484C20.2364 16.8948 20.306 16.9644 20.3525 17.034C20.3989 17.1036 20.4454 17.15 20.4686 17.2196C20.5848 17.4283 20.6545 17.6835 20.6545 17.9387C20.6545 18.7737 19.9808 19.4464 19.1446 19.4464C18.6104 19.4464 18.1458 19.1681 17.8671 18.7505C17.8671 18.7505 17.751 19.2377 17.449 19.7248L17.4258 19.7712Z" fill="#099DBD"/>
<path d="M39.366 13.404C39.366 14.524 39.156 15.462 38.736 16.218C38.3253 16.974 37.7327 17.5433 36.958 17.926C36.1833 18.3087 35.2453 18.5 34.144 18.5H31.358V8.504H34.438C35.446 8.504 36.3187 8.69067 37.056 9.064C37.7933 9.43733 38.3627 9.988 38.764 10.716C39.1653 11.4347 39.366 12.3307 39.366 13.404ZM38.036 13.446C38.036 12.5593 37.8867 11.8313 37.588 11.262C37.2987 10.6927 36.8693 10.2727 36.3 10.002C35.74 9.722 35.0587 9.582 34.256 9.582H32.618V17.422H33.976C35.3293 17.422 36.342 17.0907 37.014 16.428C37.6953 15.756 38.036 14.762 38.036 13.446ZM47.1706 18.5H41.5846V8.504H47.1706V9.61H42.8446V12.732H46.9186V13.824H42.8446V17.394H47.1706V18.5ZM49.3639 18.5V8.504H50.6239V17.38H54.9919V18.5H49.3639ZM57.9657 18.5H56.7057V8.504H62.2917V9.61H57.9657V13.152H62.0257V14.258H57.9657V18.5ZM72.6874 13.488C72.6874 14.2627 72.5894 14.9673 72.3934 15.602C72.1974 16.2273 71.9034 16.7687 71.5114 17.226C71.1288 17.6833 70.6481 18.0333 70.0694 18.276C69.5001 18.5187 68.8374 18.64 68.0814 18.64C67.2974 18.64 66.6161 18.5187 66.0374 18.276C65.4588 18.024 64.9781 17.674 64.5954 17.226C64.2128 16.7687 63.9281 16.2227 63.7414 15.588C63.5548 14.9533 63.4614 14.2487 63.4614 13.474C63.4614 12.4473 63.6294 11.5513 63.9654 10.786C64.3014 10.0207 64.8101 9.42333 65.4914 8.994C66.1821 8.56467 67.0501 8.35 68.0954 8.35C69.0941 8.35 69.9341 8.56467 70.6154 8.994C71.2968 9.414 71.8101 10.0113 72.1554 10.786C72.5101 11.5513 72.6874 12.452 72.6874 13.488ZM64.7914 13.488C64.7914 14.328 64.9081 15.0513 65.1414 15.658C65.3748 16.2647 65.7341 16.7313 66.2194 17.058C66.7141 17.3847 67.3348 17.548 68.0814 17.548C68.8374 17.548 69.4534 17.3847 69.9294 17.058C70.4148 16.7313 70.7741 16.2647 71.0074 15.658C71.2408 15.0513 71.3574 14.328 71.3574 13.488C71.3574 12.228 71.0961 11.2433 70.5734 10.534C70.0508 9.81533 69.2248 9.456 68.0954 9.456C67.3394 9.456 66.7141 9.61933 66.2194 9.946C65.7341 10.2633 65.3748 10.7253 65.1414 11.332C64.9081 11.9293 64.7914 12.648 64.7914 13.488ZM80.5729 15.826C80.5729 16.4233 80.4283 16.932 80.1389 17.352C79.8496 17.7627 79.4343 18.08 78.8929 18.304C78.3609 18.528 77.7309 18.64 77.0029 18.64C76.6296 18.64 76.2703 18.6213 75.9249 18.584C75.5889 18.5467 75.2809 18.4953 75.0009 18.43C74.7209 18.3553 74.4736 18.2667 74.2589 18.164V16.96C74.5949 17.1093 75.0103 17.2447 75.5049 17.366C76.0089 17.4873 76.5269 17.548 77.0589 17.548C77.5536 17.548 77.9689 17.4827 78.3049 17.352C78.6409 17.2213 78.8929 17.0347 79.0609 16.792C79.2289 16.5493 79.3129 16.2647 79.3129 15.938C79.3129 15.6113 79.2429 15.336 79.1029 15.112C78.9629 14.888 78.7203 14.6827 78.3749 14.496C78.0389 14.3 77.5676 14.0947 76.9609 13.88C76.5316 13.7213 76.1536 13.5533 75.8269 13.376C75.5096 13.1893 75.2436 12.9793 75.0289 12.746C74.8143 12.5127 74.6509 12.2467 74.5389 11.948C74.4363 11.6493 74.3849 11.304 74.3849 10.912C74.3849 10.38 74.5203 9.92733 74.7909 9.554C75.0616 9.17133 75.4349 8.87733 75.9109 8.672C76.3963 8.46667 76.9516 8.364 77.5769 8.364C78.1276 8.364 78.6316 8.41533 79.0889 8.518C79.5463 8.62067 79.9616 8.756 80.3349 8.924L79.9429 10.002C79.5976 9.85267 79.2196 9.72667 78.8089 9.624C78.4076 9.52133 77.9876 9.47 77.5489 9.47C77.1289 9.47 76.7789 9.53067 76.4989 9.652C76.2189 9.77333 76.0089 9.946 75.8689 10.17C75.7289 10.3847 75.6589 10.6367 75.6589 10.926C75.6589 11.262 75.7289 11.542 75.8689 11.766C76.0089 11.99 76.2376 12.1907 76.5549 12.368C76.8723 12.5453 77.3016 12.7367 77.8429 12.942C78.4309 13.1567 78.9256 13.39 79.3269 13.642C79.7376 13.8847 80.0456 14.1787 80.2509 14.524C80.4656 14.8693 80.5729 15.3033 80.5729 15.826Z" fill="#099DBD"/>
</svg>
